  0
SECTION
  2
HEADER
  9
$ACADVER
  1
AC1009
  9
$INSUNITS
 70
6
  0
ENDSEC
  0
SECTION
  2
TABLES
  0
TABLE
  2
LAYER
 70
4
  0
LAYER
  2
СКВАЖИНЫ
 70
0
 62
5
  6
CONTINUOUS
  0
LAYER
  2
ПОДПИСИ
 70
0
 62
2
  6
CONTINUOUS
  0
LAYER
  2
ЛИНИИ
 70
0
 62
3
  6
CONTINUOUS
  0
LAYER
  2
КОНТУРЫ
 70
0
 62
4
  6
CONTINUOUS
  0
ENDTAB
  0
ENDSEC
  0
SECTION
  2
ENTITIES
  0
POINT
  8
СКВАЖИНЫ
 10
3476438.102
 20
1876645.893
 30
0.0
  0
TEXT
  8
ПОДПИСИ
 10
3476438.602
 20
1876646.393
 30
0.0
 40
1.5
  1
СКВ-1 (H=15, d=108, УГВ=, Скв. ?185) (факт)
  0
POINT
  8
СКВАЖИНЫ
 10
3476583.884
 20
1876069.503
 30
0.0
  0
TEXT
  8
ПОДПИСИ
 10
3476584.384
 20
1876070.003
 30
0.0
 40
1.5
  1
СКВ-2 (H=15, d=108, УГВ=, Скв. ?188) (факт)
  0
POINT
  8
СКВАЖИНЫ
 10
3476676.383
 20
1875898.250
 30
0.0
  0
TEXT
  8
ПОДПИСИ
 10
3476676.883
 20
1875898.750
 30
0.0
 40
1.5
  1
СКВ-3 (H=15, d=108, УГВ=, Скв. ?189) (факт)
  0
POINT
  8
СКВАЖИНЫ
 10
3476519.566
 20
1876259.116
 30
0.0
  0
TEXT
  8
ПОДПИСИ
 10
3476520.066
 20
1876259.616
 30
0.0
 40
1.5
  1
СКВ-4 (H=15, d=108, УГВ=, Скв. ?187) (факт)
  0
POINT
  8
СКВАЖИНЫ
 10
3476456.519
 20
1876447.434
 30
0.0
  0
TEXT
  8
ПОДПИСИ
 10
3476457.019
 20
1876447.934
 30
0.0
 40
1.5
  1
СКВ-5 (H=15, d=108, УГВ=, Скв. ?186) (факт)
  0
POINT
  8
СКВАЖИНЫ
 10
3476388.261
 20
1877445.268
 30
0.0
  0
TEXT
  8
ПОДПИСИ
 10
3476388.761
 20
1877445.768
 30
0.0
 40
1.5
  1
СКВ-6 (H=15, d=108, УГВ=, Скв. ?181) (факт)
  0
POINT
  8
СКВАЖИНЫ
 10
3476375.800
 20
1877644.436
 30
0.0
  0
TEXT
  8
ПОДПИСИ
 10
3476376.300
 20
1877644.936
 30
0.0
 40
1.5
  1
СКВ-7 (H=15, d=108, УГВ=, Скв. ?180) (факт)
  0
POINT
  8
СКВАЖИНЫ
 10
3476198.042
 20
1877970.974
 30
0.0
  0
TEXT
  8
ПОДПИСИ
 10
3476198.542
 20
1877971.474
 30
0.0
 40
1.5
  1
СКВ-8 (H=15, d=108, УГВ=, Скв. ?178) (факт)
  0
POINT
  8
СКВАЖИНЫ
 10
3476347.599
 20
1877837.390
 30
0.0
  0
TEXT
  8
ПОДПИСИ
 10
3476348.099
 20
1877837.890
 30
0.0
 40
1.5
  1
СКВ-9 (H=15, d=108, УГВ=, Скв. ?179) (факт)
  0
POINT
  8
СКВАЖИНЫ
 10
3476399.448
 20
1877245.673
 30
0.0
  0
TEXT
  8
ПОДПИСИ
 10
3476399.948
 20
1877246.173
 30
0.0
 40
1.5
  1
СКВ-10 (H=15, d=108, УГВ=, Скв. ?182) (факт)
  0
POINT
  8
СКВАЖИНЫ
 10
3476411.058
 20
1877045.634
 30
0.0
  0
TEXT
  8
ПОДПИСИ
 10
3476411.558
 20
1877046.134
 30
0.0
 40
1.5
  1
СКВ-11 (H=15, d=108, УГВ=, Скв. ?183) (факт)
  0
POINT
  8
СКВАЖИНЫ
 10
3476424.381
 20
1876847.257
 30
0.0
  0
TEXT
  8
ПОДПИСИ
 10
3476424.881
 20
1876847.757
 30
0.0
 40
1.5
  1
СКВ-12 (H=15, d=108, УГВ=, Скв. ?184) (факт)
  0
POINT
  8
СКВАЖИНЫ
 10
3475819.480
 20
1878611.198
 30
0.0
  0
TEXT
  8
ПОДПИСИ
 10
3475819.980
 20
1878611.698
 30
0.0
 40
1.5
  1
СКВ-13 (H=15, d=108, УГВ=, Скв.?-173) (факт)
  0
POINT
  8
СКВАЖИНЫ
 10
3476070.770
 20
1878078.628
 30
0.0
  0
TEXT
  8
ПОДПИСИ
 10
3476071.270
 20
1878079.128
 30
0.0
 40
1.5
  1
СКВ-14 (H=15, d=108, УГВ=, Скв.?-177) (факт)
  0
POINT
  8
СКВАЖИНЫ
 10
3475855.180
 20
1878787.548
 30
0.0
  0
TEXT
  8
ПОДПИСИ
 10
3475855.680
 20
1878788.048
 30
0.0
 40
1.5
  1
СКВ-15 (H=15, d=108, УГВ=, Скв.?-Скв: 171 
(0.0-1.0 лёд)
(1.0 до 15.0 талый грунт)) (факт)
  0
POINT
  8
СКВАЖИНЫ
 10
3475898.850
 20
1879003.248
 30
0.0
  0
TEXT
  8
ПОДПИСИ
 10
3475899.350
 20
1879003.748
 30
0.0
 40
1.5
  1
СКВ-16 (H=15, d=108, УГВ=, Скв.?-169) (факт)
  0
POINT
  8
СКВАЖИНЫ
 10
3475827.570
 20
1878418.148
 30
0.0
  0
TEXT
  8
ПОДПИСИ
 10
3475828.070
 20
1878418.648
 30
0.0
 40
1.5
  1
СКВ-17 (H=15, d=108, УГВ=, Скв.?-174) (факт)
  0
POINT
  8
СКВАЖИНЫ
 10
3475897.400
 20
1878232.648
 30
0.0
  0
TEXT
  8
ПОДПИСИ
 10
3475897.900
 20
1878233.148
 30
0.0
 40
1.5
  1
СКВ-18 (H=15, d=108, УГВ=, Скв.?-175) (факт)
  0
POINT
  8
СКВАЖИНЫ
 10
3476047.320
 20
1878100.268
 30
0.0
  0
TEXT
  8
ПОДПИСИ
 10
3476047.820
 20
1878100.768
 30
0.0
 40
1.5
  1
СКВ-19 (H=15, d=108, УГВ=, Скв.?-176) (факт)
  0
POINT
  8
СКВАЖИНЫ
 10
3475938.530
 20
1879199.268
 30
0.0
  0
TEXT
  8
ПОДПИСИ
 10
3475939.030
 20
1879199.768
 30
0.0
 40
1.5
  1
СКВ-20 (H=15, d=108, УГВ=, Скв.?-168) (факт)
  0
POINT
  8
СКВАЖИНЫ
 10
3475883.260
 20
1879373.728
 30
0.0
  0
TEXT
  8
ПОДПИСИ
 10
3475883.760
 20
1879374.228
 30
0.0
 40
1.5
  1
СКВ-21 (H=15, d=108, УГВ=, Скв.?-167) (факт)
  0
POINT
  8
СКВАЖИНЫ
 10
3475758.610
 20
1879530.128
 30
0.0
  0
TEXT
  8
ПОДПИСИ
 10
3475759.110
 20
1879530.628
 30
0.0
 40
1.5
  1
СКВ-22 (H=15, d=108, УГВ=, Скв.?-166 (1.0-1.8 ледогрунт )) (факт)
  0
POINT
  8
СКВАЖИНЫ
 10
3475633.960
 20
1879686.538
 30
0.0
  0
TEXT
  8
ПОДПИСИ
 10
3475634.460
 20
1879687.038
 30
0.0
 40
1.5
  1
СКВ-23 (H=15, d=108, УГВ=, Скв.?-165) (факт)
  0
POINT
  8
СКВАЖИНЫ
 10
3475509.300
 20
1879842.938
 30
0.0
  0
TEXT
  8
ПОДПИСИ
 10
3475509.800
 20
1879843.438
 30
0.0
 40
1.5
  1
СКВ-24 (H=15, d=108, УГВ=, Скв.?-164) (факт)
  0
POINT
  8
СКВАЖИНЫ
 10
3475233.070
 20
1880119.278
 30
0.0
  0
TEXT
  8
ПОДПИСИ
 10
3475233.570
 20
1880119.778
 30
0.0
 40
1.5
  1
СКВ-25 (H=15, d=108, УГВ=, Скв.?-161) (факт)
  0
POINT
  8
СКВАЖИНЫ
 10
3475845.260
 20
1878738.538
 30
0.0
  0
TEXT
  8
ПОДПИСИ
 10
3475845.760
 20
1878739.038
 30
0.0
 40
1.5
  1
СКВ-26 (H=15, d=108, УГВ=, Скв.?-172) (факт)
  0
POINT
  8
СКВАЖИНЫ
 10
3475864.950
 20
1878835.828
 30
0.0
  0
TEXT
  8
ПОДПИСИ
 10
3475865.450
 20
1878836.328
 30
0.0
 40
1.5
  1
СКВ-27 (H=15, d=108, УГВ=, Скв.?-170) (факт)
  0
POINT
  8
СКВАЖИНЫ
 10
3475411.340
 20
1879964.238
 30
0.0
  0
TEXT
  8
ПОДПИСИ
 10
3475411.840
 20
1879964.738
 30
0.0
 40
1.5
  1
СКВ-28 (H=15, d=108, УГВ=, Скв.?-163) (факт)
  0
POINT
  8
СКВАЖИНЫ
 10
3475384.650
 20
1879999.338
 30
0.0
  0
TEXT
  8
ПОДПИСИ
 10
3475385.150
 20
1879999.838
 30
0.0
 40
1.5
  1
СКВ-29 (H=15, d=108, УГВ=, Скв.?-162) (факт)
  0
POINT
  8
СКВАЖИНЫ
 10
3475046.920
 20
1880192.408
 30
0.0
  0
TEXT
  8
ПОДПИСИ
 10
3475047.420
 20
1880192.908
 30
0.0
 40
1.5
  1
СКВ-30 (H=15, d=108, УГВ=, Скв.?-160) (факт)
  0
POINT
  8
СКВАЖИНЫ
 10
3474860.770
 20
1880265.528
 30
0.0
  0
TEXT
  8
ПОДПИСИ
 10
3474861.270
 20
1880266.028
 30
0.0
 40
1.5
  1
СКВ-31 (H=15, d=108, УГВ=, Скв.?-159) (факт)
  0
POINT
  8
СКВАЖИНЫ
 10
3474674.610
 20
1880338.648
 30
0.0
  0
TEXT
  8
ПОДПИСИ
 10
3474675.110
 20
1880339.148
 30
0.0
 40
1.5
  1
СКВ-32 (H=15, d=108, УГВ=, Скв.?-158 ---
0.9-2.8 Лед.) (факт)
  0
POINT
  8
СКВАЖИНЫ
 10
3474487.970
 20
1880410.408
 30
0.0
  0
TEXT
  8
ПОДПИСИ
 10
3474488.470
 20
1880410.908
 30
0.0
 40
1.5
  1
СКВ-33 (H=15, d=108, УГВ=, Скв.?-157) (факт)
  0
POINT
  8
СКВАЖИНЫ
 10
3474298.000
 20
1880472.958
 30
0.0
  0
TEXT
  8
ПОДПИСИ
 10
3474298.500
 20
1880473.458
 30
0.0
 40
1.5
  1
СКВ-34 (H=15, d=108, УГВ=, Скв.?-156) (факт)
  0
POINT
  8
СКВАЖИНЫ
 10
3474108.030
 20
1880535.508
 30
0.0
  0
TEXT
  8
ПОДПИСИ
 10
3474108.530
 20
1880536.008
 30
0.0
 40
1.5
  1
СКВ-35 (H=15, d=108, УГВ=, Скв.?-155) (факт)
  0
POINT
  8
СКВАЖИНЫ
 10
3473918.070
 20
1880598.058
 30
0.0
  0
TEXT
  8
ПОДПИСИ
 10
3473918.570
 20
1880598.558
 30
0.0
 40
1.5
  1
СКВ-36 (H=15, d=108, УГВ=, Скв.?-154) (факт)
  0
POINT
  8
СКВАЖИНЫ
 10
3473728.100
 20
1880660.608
 30
0.0
  0
TEXT
  8
ПОДПИСИ
 10
3473728.600
 20
1880661.108
 30
0.0
 40
1.5
  1
СКВ-37 (H=15, d=108, УГВ=, Скв.?-153) (факт)
  0
POINT
  8
СКВАЖИНЫ
 10
3473538.130
 20
1880723.158
 30
0.0
  0
TEXT
  8
ПОДПИСИ
 10
3473538.630
 20
1880723.658
 30
0.0
 40
1.5
  1
СКВ-38 (H=15, d=108, УГВ=, Скв.?-152) (факт)
  0
POINT
  8
СКВАЖИНЫ
 10
3473348.170
 20
1880785.708
 30
0.0
  0
TEXT
  8
ПОДПИСИ
 10
3473348.670
 20
1880786.208
 30
0.0
 40
1.5
  1
СКВ-39 (H=15, d=108, УГВ=, Скв.?-151) (факт)
  0
POINT
  8
СКВАЖИНЫ
 10
3473222.530
 20
1880902.878
 30
0.0
  0
TEXT
  8
ПОДПИСИ
 10
3473223.030
 20
1880903.378
 30
0.0
 40
1.5
  1
СКВ-40 (H=15, d=108, УГВ=, Скв.?-150(0-0.9 торф)) (факт)
  0
POINT
  8
СКВАЖИНЫ
 10
3473089.290
 20
1881052.028
 30
0.0
  0
TEXT
  8
ПОДПИСИ
 10
3473089.790
 20
1881052.528
 30
0.0
 40
1.5
  1
СКВ-41 (H=15, d=108, УГВ=, Скв.?-149) (факт)
  0
POINT
  8
СКВАЖИНЫ
 10
3472996.780
 20
1881224.568
 30
0.0
  0
TEXT
  8
ПОДПИСИ
 10
3472997.280
 20
1881225.068
 30
0.0
 40
1.5
  1
СКВ-42 (H=15, d=108, УГВ=, Скв.?-148) (факт)
  0
POINT
  8
СКВАЖИНЫ
 10
3472938.710
 20
1881415.948
 30
0.0
  0
TEXT
  8
ПОДПИСИ
 10
3472939.210
 20
1881416.448
 30
0.0
 40
1.5
  1
СКВ-43 (H=15, d=108, УГВ=, Скв.?-147 --- ( 6 - 7.5 ледогрунт )) (факт)
  0
POINT
  8
СКВАЖИНЫ
 10
3472914.144
 20
1881612.918
 30
0.0
  0
TEXT
  8
ПОДПИСИ
 10
3472914.644
 20
1881613.418
 30
0.0
 40
1.5
  1
СКВ-44 (H=15, d=108, УГВ=, Скв.?-146---(0.1-0.9 торф)) (факт)
  0
POINT
  8
СКВАЖИНЫ
 10
3472907.611
 20
1881812.758
 30
0.0
  0
TEXT
  8
ПОДПИСИ
 10
3472908.111
 20
1881813.258
 30
0.0
 40
1.5
  1
СКВ-45 (H=15, d=108, УГВ=, Скв.?-145---(0.1-1.2 торф)) (факт)
  0
POINT
  8
СКВАЖИНЫ
 10
3472901.398
 20
1882012.578
 30
0.0
  0
TEXT
  8
ПОДПИСИ
 10
3472901.898
 20
1882013.078
 30
0.0
 40
1.5
  1
СКВ-46 (H=15, d=108, УГВ=, Скв.?-144---(0.1-1.3 торф)) (факт)
  0
POINT
  8
СКВАЖИНЫ
 10
3472878.145
 20
1882211.306
 30
0.0
  0
TEXT
  8
ПОДПИСИ
 10
3472878.645
 20
1882211.806
 30
0.0
 40
1.5
  1
СКВ-47 (H=15, d=108, УГВ=, Скв.?-143---(0.1-1.1 торф)) (факт)
  0
POINT
  8
СКВАЖИНЫ
 10
3472861.705
 20
1882347.914
 30
0.0
  0
TEXT
  8
ПОДПИСИ
 10
3472862.205
 20
1882348.414
 30
0.0
 40
1.5
  1
СКВ-48 (H=15, d=108, УГВ=, Скв.?-142) (факт)
  0
POINT
  8
СКВАЖИНЫ
 10
3472855.812
 20
1882397.433
 30
0.0
  0
TEXT
  8
ПОДПИСИ
 10
3472856.312
 20
1882397.933
 30
0.0
 40
1.5
  1
СКВ-49 (H=15, d=108, УГВ=, Скв.?-141) (факт)
  0
POINT
  8
СКВАЖИНЫ
 10
3472850.874
 20
1882447.151
 30
0.0
  0
TEXT
  8
ПОДПИСИ
 10
3472851.374
 20
1882447.651
 30
0.0
 40
1.5
  1
СКВ-50 (H=15, d=108, УГВ=, Скв.?-140) (факт)
  0
POINT
  8
СКВАЖИНЫ
 10
3472839.375
 20
1882534.030
 30
0.0
  0
TEXT
  8
ПОДПИСИ
 10
3472839.875
 20
1882534.530
 30
0.0
 40
1.5
  1
СКВ-51 (H=15, d=108, УГВ=, Скв.?-139) (факт)
  0
POINT
  8
СКВАЖИНЫ
 10
3472816.879
 20
1882723.832
 30
0.0
  0
TEXT
  8
ПОДПИСИ
 10
3472817.379
 20
1882724.332
 30
0.0
 40
1.5
  1
СКВ-52 (H=15, d=108, УГВ=, Скв.?-138) (факт)
  0
POINT
  8
СКВАЖИНЫ
 10
3472804.676
 20
1882823.070
 30
0.0
  0
TEXT
  8
ПОДПИСИ
 10
3472805.176
 20
1882823.570
 30
0.0
 40
1.5
  1
СКВ-53 (H=15, d=108, УГВ=, Скв.?-137) (факт)
  0
POINT
  8
СКВАЖИНЫ
 10
3472797.531
 20
1882892.561
 30
0.0
  0
TEXT
  8
ПОДПИСИ
 10
3472798.031
 20
1882893.061
 30
0.0
 40
1.5
  1
СКВ-54 (H=15, d=108, УГВ=, Скв.?-136) (факт)
  0
POINT
  8
СКВАЖИНЫ
 10
3472779.844
 20
1883030.201
 30
0.0
  0
TEXT
  8
ПОДПИСИ
 10
3472780.344
 20
1883030.701
 30
0.0
 40
1.5
  1
СКВ-55 (H=15, d=108, УГВ=, Скв.?-135) (факт)
  0
POINT
  8
СКВАЖИНЫ
 10
3472755.981
 20
1883229.065
 30
0.0
  0
TEXT
  8
ПОДПИСИ
 10
3472756.481
 20
1883229.565
 30
0.0
 40
1.5
  1
СКВ-56 (H=15, d=108, УГВ=, Скв.?-134) (факт)
  0
POINT
  8
СКВАЖИНЫ
 10
3472732.120
 20
1883427.807
 30
0.0
  0
TEXT
  8
ПОДПИСИ
 10
3472732.620
 20
1883428.307
 30
0.0
 40
1.5
  1
СКВ-57 (H=15, d=108, УГВ=, Скв.?-133) (факт)
  0
POINT
  8
СКВАЖИНЫ
 10
3472708.046
 20
1883626.008
 30
0.0
  0
TEXT
  8
ПОДПИСИ
 10
3472708.546
 20
1883626.508
 30
0.0
 40
1.5
  1
СКВ-58 (H=15, d=108, УГВ=, Скв.?-132) (факт)
  0
POINT
  8
СКВАЖИНЫ
 10
3472684.404
 20
1883824.610
 30
0.0
  0
TEXT
  8
ПОДПИСИ
 10
3472684.904
 20
1883825.110
 30
0.0
 40
1.5
  1
СКВ-59 (H=15, d=108, УГВ=, Скв.?-131---(0.5-3.7 лёд)) (факт)
  0
POINT
  8
СКВАЖИНЫ
 10
3472660.450
 20
1884023.305
 30
0.0
  0
TEXT
  8
ПОДПИСИ
 10
3472660.950
 20
1884023.805
 30
0.0
 40
1.5
  1
СКВ-60 (H=15, d=108, УГВ=, Скв.?-130) (факт)
  0
POINT
  8
СКВАЖИНЫ
 10
3472636.440
 20
1884221.938
 30
0.0
  0
TEXT
  8
ПОДПИСИ
 10
3472636.940
 20
1884222.438
 30
0.0
 40
1.5
  1
СКВ-61 (H=15, d=108, УГВ=, Скв.? 129) (факт)
  0
POINT
  8
СКВАЖИНЫ
 10
3472612.560
 20
1884420.508
 30
0.0
  0
TEXT
  8
ПОДПИСИ
 10
3472613.060
 20
1884421.008
 30
0.0
 40
1.5
  1
СКВ-62 (H=15, d=108, УГВ=, Скв. ?128) (факт)
  0
POINT
  8
СКВАЖИНЫ
 10
3472517.420
 20
1884578.998
 30
0.0
  0
TEXT
  8
ПОДПИСИ
 10
3472517.920
 20
1884579.498
 30
0.0
 40
1.5
  1
СКВ-63 (H=15, d=108, УГВ=, Скв. ?127) (факт)
  0
POINT
  8
СКВАЖИНЫ
 10
3472360.120
 20
1884702.518
 30
0.0
  0
TEXT
  8
ПОДПИСИ
 10
3472360.620
 20
1884703.018
 30
0.0
 40
1.5
  1
СКВ-64 (H=15, d=108, УГВ=, Скв. 126(6.0-6.7 ледогрунт)) (факт)
  0
POINT
  8
СКВАЖИНЫ
 10
3472202.830
 20
1884826.038
 30
0.0
  0
TEXT
  8
ПОДПИСИ
 10
3472203.330
 20
1884826.538
 30
0.0
 40
1.5
  1
СКВ-65 (H=15, d=108, УГВ=, Скв. ?125) (факт)
  0
POINT
  8
СКВАЖИНЫ
 10
3472022.360
 20
1884911.778
 30
0.0
  0
TEXT
  8
ПОДПИСИ
 10
3472022.860
 20
1884912.278
 30
0.0
 40
1.5
  1
СКВ-66 (H=15, d=108, УГВ=, Скв. 124(0-0.5 торф)) (факт)
  0
POINT
  8
СКВАЖИНЫ
 10
3471840.960
 20
1884996.008
 30
0.0
  0
TEXT
  8
ПОДПИСИ
 10
3471841.460
 20
1884996.508
 30
0.0
 40
1.5
  1
СКВ-67 (H=15, d=108, УГВ=, Скв. 123(0.9-2.8 лёд)) (факт)
  0
POINT
  8
СКВАЖИНЫ
 10
3471659.550
 20
1885080.228
 30
0.0
  0
TEXT
  8
ПОДПИСИ
 10
3471660.050
 20
1885080.728
 30
0.0
 40
1.5
  1
СКВ-68 (H=15, d=108, УГВ=, Скв. 122 (1.1-2.0 лёд)) (факт)
  0
POINT
  8
СКВАЖИНЫ
 10
3471478.150
 20
1885164.448
 30
0.0
  0
TEXT
  8
ПОДПИСИ
 10
3471478.650
 20
1885164.948
 30
0.0
 40
1.5
  1
СКВ-69 (H=15, d=108, УГВ=, Скв. ?121) (факт)
  0
POINT
  8
СКВАЖИНЫ
 10
3471296.750
 20
1885248.668
 30
0.0
  0
TEXT
  8
ПОДПИСИ
 10
3471297.250
 20
1885249.168
 30
0.0
 40
1.5
  1
СКВ-70 (H=15, d=108, УГВ=, Скв. 120(2.8-3.9 лёд)) (факт)
  0
POINT
  8
СКВАЖИНЫ
 10
3471115.350
 20
1885332.888
 30
0.0
  0
TEXT
  8
ПОДПИСИ
 10
3471115.850
 20
1885333.388
 30
0.0
 40
1.5
  1
СКВ-71 (H=15, d=108, УГВ=, Скв. ?119) (факт)
  0
POINT
  8
СКВАЖИНЫ
 10
3470933.940
 20
1885417.108
 30
0.0
  0
TEXT
  8
ПОДПИСИ
 10
3470934.440
 20
1885417.608
 30
0.0
 40
1.5
  1
СКВ-72 (H=15, d=108, УГВ=, Скв. ?118) (факт)
  0
POINT
  8
СКВАЖИНЫ
 10
3470752.540
 20
1885501.328
 30
0.0
  0
TEXT
  8
ПОДПИСИ
 10
3470753.040
 20
1885501.828
 30
0.0
 40
1.5
  1
СКВ-73 (H=117, d=108, УГВ=, Скв. ?117) (факт)
  0
POINT
  8
СКВАЖИНЫ
 10
3470571.140
 20
1885585.548
 30
0.0
  0
TEXT
  8
ПОДПИСИ
 10
3470571.640
 20
1885586.048
 30
0.0
 40
1.5
  1
СКВ-74 (H=15, d=108, УГВ=, Скв. ?116) (факт)
  0
POINT
  8
СКВАЖИНЫ
 10
3470371.950
 20
1885567.918
 30
0.0
  0
TEXT
  8
ПОДПИСИ
 10
3470372.450
 20
1885568.418
 30
0.0
 40
1.5
  1
СКВ-75 (H=15, d=108, УГВ=, Скв. 115(0.8-1.5 лёд)) (факт)
  0
POINT
  8
СКВАЖИНЫ
 10
3470172.740
 20
1885550.158
 30
0.0
  0
TEXT
  8
ПОДПИСИ
 10
3470173.240
 20
1885550.658
 30
0.0
 40
1.5
  1
СКВ-76 (H=15, d=108, УГВ=, Скв. ?114) (факт)
  0
POINT
  8
СКВАЖИНЫ
 10
3469973.530
 20
1885532.388
 30
0.0
  0
TEXT
  8
ПОДПИСИ
 10
3469974.030
 20
1885532.888
 30
0.0
 40
1.5
  1
СКВ-77 (H=15, d=108, УГВ=, Скв. ?113) (факт)
  0
POINT
  8
СКВАЖИНЫ
 10
3469774.195
 20
1885514.537
 30
0.0
  0
TEXT
  8
ПОДПИСИ
 10
3469774.695
 20
1885515.037
 30
0.0
 40
1.5
  1
СКВ-78 (H=15, d=108, УГВ=, Скв. ?112) (факт)
  0
POINT
  8
СКВАЖИНЫ
 10
3469577.113
 20
1885540.345
 30
0.0
  0
TEXT
  8
ПОДПИСИ
 10
3469577.613
 20
1885540.845
 30
0.0
 40
1.5
  1
СКВ-79 (H=15, d=108, УГВ=, Скв. 111 (8.5-9 ледогрунт)) (факт)
  0
POINT
  8
СКВАЖИНЫ
 10
3469379.721
 20
1885574.721
 30
0.0
  0
TEXT
  8
ПОДПИСИ
 10
3469380.221
 20
1885575.221
 30
0.0
 40
1.5
  1
СКВ-80 (H=15, d=108, УГВ=, Скв. ?110) (факт)
  0
POINT
  8
СКВАЖИНЫ
 10
3469192.355
 20
1885632.835
 30
0.0
  0
TEXT
  8
ПОДПИСИ
 10
3469192.855
 20
1885633.335
 30
0.0
 40
1.5
  1
СКВ-81 (H=15, d=108, УГВ=, Скв. 109 (0.1-4.5 торф)) (факт)
  0
POINT
  8
СКВАЖИНЫ
 10
3469026.606
 20
1885744.924
 30
0.0
  0
TEXT
  8
ПОДПИСИ
 10
3469027.106
 20
1885745.424
 30
0.0
 40
1.5
  1
СКВ-82 (H=15, d=108, УГВ=, Скв. ?108) (факт)
  0
POINT
  8
СКВАЖИНЫ
 10
3468860.760
 20
1885856.598
 30
0.0
  0
TEXT
  8
ПОДПИСИ
 10
3468861.260
 20
1885857.098
 30
0.0
 40
1.5
  1
СКВ-83 (H=15, d=108, УГВ=, Скв. 107 (2.6-4торф)) (факт)
  0
POINT
  8
СКВАЖИНЫ
 10
3468778.700
 20
1885913.376
 30
0.0
  0
TEXT
  8
ПОДПИСИ
 10
3468779.200
 20
1885913.876
 30
0.0
 40
1.5
  1
СКВ-84 (H=15, d=108, УГВ=, Скв. ?106) (факт)
  0
POINT
  8
СКВАЖИНЫ
 10
3468695.249
 20
1885968.486
 30
0.0
  0
TEXT
  8
ПОДПИСИ
 10
3468695.749
 20
1885968.986
 30
0.0
 40
1.5
  1
СКВ-85 (H=15, d=108, УГВ=, Скв. 105(1.5-2.8 талый грунт)) (факт)
  0
POINT
  8
СКВАЖИНЫ
 10
3468529.543
 20
1886080.383
 30
0.0
  0
TEXT
  8
ПОДПИСИ
 10
3468530.043
 20
1886080.883
 30
0.0
 40
1.5
  1
СКВ-86 (H=15, d=108, УГВ=, Скв. ?104) (факт)
  0
POINT
  8
СКВАЖИНЫ
 10
3468342.264
 20
1886132.642
 30
0.0
  0
TEXT
  8
ПОДПИСИ
 10
3468342.764
 20
1886133.142
 30
0.0
 40
1.5
  1
СКВ-87 (H=15, d=108, УГВ=, Скв. ?103) (факт)
  0
POINT
  8
СКВАЖИНЫ
 10
3468143.156
 20
1886152.259
 30
0.0
  0
TEXT
  8
ПОДПИСИ
 10
3468143.656
 20
1886152.759
 30
0.0
 40
1.5
  1
СКВ-88 (H=15, d=108, УГВ=, Скв. 102 (1.5-2.4 лед)) (факт)
  0
POINT
  8
СКВАЖИНЫ
 10
3467944.238
 20
1886185.922
 30
0.0
  0
TEXT
  8
ПОДПИСИ
 10
3467944.738
 20
1886186.422
 30
0.0
 40
1.5
  1
СКВ-89 (H=15, d=108, УГВ=, Скв. ?101) (факт)
  0
POINT
  8
СКВАЖИНЫ
 10
3467862.652
 20
1886244.196
 30
0.0
  0
TEXT
  8
ПОДПИСИ
 10
3467863.152
 20
1886244.696
 30
0.0
 40
1.5
  1
СКВ-90 (H=15, d=108, УГВ=, Скв. ?100) (факт)
  0
POINT
  8
СКВАЖИНЫ
 10
3467719.577
 20
1886346.656
 30
0.0
  0
TEXT
  8
ПОДПИСИ
 10
3467720.077
 20
1886347.156
 30
0.0
 40
1.5
  1
СКВ-91 (H=15, d=108, УГВ=, Скв. ?99) (факт)
  0
POINT
  8
СКВАЖИНЫ
 10
3467622.941
 20
1886415.581
 30
0.0
  0
TEXT
  8
ПОДПИСИ
 10
3467623.441
 20
1886416.081
 30
0.0
 40
1.5
  1
СКВ-92 (H=15, d=108, УГВ=, Скв. ?98) (факт)
  0
POINT
  8
СКВАЖИНЫ
 10
3467460.226
 20
1886532.029
 30
0.0
  0
TEXT
  8
ПОДПИСИ
 10
3467460.726
 20
1886532.529
 30
0.0
 40
1.5
  1
СКВ-93 (H=15, d=108, УГВ=, Скв. ?97) (факт)
  0
POINT
  8
СКВАЖИНЫ
 10
3467297.841
 20
1886648.372
 30
0.0
  0
TEXT
  8
ПОДПИСИ
 10
3467298.341
 20
1886648.872
 30
0.0
 40
1.5
  1
СКВ-94 (H=15, d=108, УГВ=, Скв. ?96) (факт)
  0
POINT
  8
СКВАЖИНЫ
 10
3467135.157
 20
1886764.832
 30
0.0
  0
TEXT
  8
ПОДПИСИ
 10
3467135.657
 20
1886765.332
 30
0.0
 40
1.5
  1
СКВ-95 (H=15, d=108, УГВ=, Скв. ?95) (факт)
  0
POINT
  8
СКВАЖИНЫ
 10
3466972.382
 20
1886881.192
 30
0.0
  0
TEXT
  8
ПОДПИСИ
 10
3466972.882
 20
1886881.692
 30
0.0
 40
1.5
  1
СКВ-96 (H=15, d=108, УГВ=, Скв.?94) (факт)
  0
POINT
  8
СКВАЖИНЫ
 10
3466812.521
 20
1887001.105
 30
0.0
  0
TEXT
  8
ПОДПИСИ
 10
3466813.021
 20
1887001.605
 30
0.0
 40
1.5
  1
СКВ-97 (H=15, d=108, УГВ=, Скв. ?93) (факт)
  0
POINT
  8
СКВАЖИНЫ
 10
3466732.259
 20
1887067.185
 30
0.0
  0
TEXT
  8
ПОДПИСИ
 10
3466732.759
 20
1887067.685
 30
0.0
 40
1.5
  1
СКВ-98 (H=15, d=108, УГВ=, Скв.?92) (факт)
  0
POINT
  8
СКВАЖИНЫ
 10
3466658.589
 20
1887128.745
 30
0.0
  0
TEXT
  8
ПОДПИСИ
 10
3466659.089
 20
1887129.245
 30
0.0
 40
1.5
  1
СКВ-99 (H=15, d=108, УГВ=, Скв.?91) (факт)
  0
POINT
  8
СКВАЖИНЫ
 10
3466478.237
 20
1887215.099
 30
0.0
  0
TEXT
  8
ПОДПИСИ
 10
3466478.737
 20
1887215.599
 30
0.0
 40
1.5
  1
СКВ-100 (H=15, d=108, УГВ=, скв: 90 (1.6 - 4.0 лёд)) (факт)
  0
POINT
  8
СКВАЖИНЫ
 10
3466297.369
 20
1887301.365
 30
0.0
  0
TEXT
  8
ПОДПИСИ
 10
3466297.869
 20
1887301.865
 30
0.0
 40
1.5
  1
СКВ-101 (H=15, d=108, УГВ=, скв: 89 (2.1-5.1; 10.2 -13.0 лёд)) (факт)
  0
POINT
  8
СКВАЖИНЫ
 10
3466117.039
 20
1887387.424
 30
0.0
  0
TEXT
  8
ПОДПИСИ
 10
3466117.539
 20
1887387.924
 30
0.0
 40
1.5
  1
СКВ-102 (H=15, d=108, УГВ=, скв: 88 ( 3.4-5.0 ледогрунт)) (факт)
  0
POINT
  8
СКВАЖИНЫ
 10
3465936.716
 20
1887473.178
 30
0.0
  0
TEXT
  8
ПОДПИСИ
 10
3465937.216
 20
1887473.678
 30
0.0
 40
1.5
  1
СКВ-103 (H=15, d=108, УГВ=, скв. 87(8.9-10.1 лёд)) (факт)
  0
POINT
  8
СКВАЖИНЫ
 10
3465755.780
 20
1887559.372
 30
0.0
  0
TEXT
  8
ПОДПИСИ
 10
3465756.280
 20
1887559.872
 30
0.0
 40
1.5
  1
СКВ-104 (H=15, d=108, УГВ=, 86 (10.3-11.0 лед, 12.2-13.4 лед)) (факт)
  0
POINT
  8
СКВАЖИНЫ
 10
3465575.273
 20
1887645.255
 30
0.0
  0
TEXT
  8
ПОДПИСИ
 10
3465575.773
 20
1887645.755
 30
0.0
 40
1.5
  1
СКВ-105 (H=15, d=108, УГВ=, Скв. 85 (10.3 - 11.7 лёд)) (факт)
  0
POINT
  8
СКВАЖИНЫ
 10
3465394.779
 20
1887731.149
 30
0.0
  0
TEXT
  8
ПОДПИСИ
 10
3465395.279
 20
1887731.649
 30
0.0
 40
1.5
  1
СКВ-106 (H=15, d=108, УГВ=, Скв.?84) (факт)
  0
POINT
  8
СКВАЖИНЫ
 10
3465214.300
 20
1887817.159
 30
0.0
  0
TEXT
  8
ПОДПИСИ
 10
3465214.800
 20
1887817.659
 30
0.0
 40
1.5
  1
СКВ-107 (H=15, d=108, УГВ=, Скв. 83 ( 10.7 - 12.4 лёд )) (факт)
  0
POINT
  8
СКВАЖИНЫ
 10
3465033.727
 20
1887903.181
 30
0.0
  0
TEXT
  8
ПОДПИСИ
 10
3465034.227
 20
1887903.681
 30
0.0
 40
1.5
  1
СКВ-108 (H=15, d=108, УГВ=, Скв.?82) (факт)
  0
POINT
  8
СКВАЖИНЫ
 10
3464853.062
 20
1887989.215
 30
0.0
  0
TEXT
  8
ПОДПИСИ
 10
3464853.562
 20
1887989.715
 30
0.0
 40
1.5
  1
СКВ-109 (H=15, d=108, УГВ=, Скв.?81) (факт)
  0
POINT
  8
СКВАЖИНЫ
 10
3464729.892
 20
1888145.474
 30
0.0
  0
TEXT
  8
ПОДПИСИ
 10
3464730.392
 20
1888145.974
 30
0.0
 40
1.5
  1
СКВ-110 (H=15, d=108, УГВ=, Скв.?80) (факт)
  0
POINT
  8
СКВАЖИНЫ
 10
3464610.809
 20
1888305.885
 30
0.0
  0
TEXT
  8
ПОДПИСИ
 10
3464611.309
 20
1888306.385
 30
0.0
 40
1.5
  1
СКВ-111 (H=15, d=108, УГВ=, Скв.?79) (факт)
  0
POINT
  8
СКВАЖИНЫ
 10
3464491.532
 20
1888466.401
 30
0.0
  0
TEXT
  8
ПОДПИСИ
 10
3464492.032
 20
1888466.901
 30
0.0
 40
1.5
  1
СКВ-112 (H=15, d=108, УГВ=, Скв.?78) (факт)
  0
POINT
  8
СКВАЖИНЫ
 10
3464378.134
 20
1888631.041
 30
0.0
  0
TEXT
  8
ПОДПИСИ
 10
3464378.634
 20
1888631.541
 30
0.0
 40
1.5
  1
СКВ-113 (H=15, d=108, УГВ=, Скв.?77) (факт)
  0
POINT
  8
СКВАЖИНЫ
 10
3464265.821
 20
1888796.609
 30
0.0
  0
TEXT
  8
ПОДПИСИ
 10
3464266.321
 20
1888797.109
 30
0.0
 40
1.5
  1
СКВ-114 (H=15, d=108, УГВ=, Скв.?76) (факт)
  0
POINT
  8
СКВАЖИНЫ
 10
3464153.731
 20
1888961.956
 30
0.0
  0
TEXT
  8
ПОДПИСИ
 10
3464154.231
 20
1888962.456
 30
0.0
 40
1.5
  1
СКВ-115 (H=15, d=108, УГВ=, скв: 75 ( 9.2 - 10.0 лёд)) (факт)
  0
POINT
  8
СКВАЖИНЫ
 10
3464059.852
 20
1889137.985
 30
0.0
  0
TEXT
  8
ПОДПИСИ
 10
3464060.352
 20
1889138.485
 30
0.0
 40
1.5
  1
СКВ-116 (H=15, d=108, УГВ=, скв: 74 ( 0.0 - 2.5 торф)) (факт)
  0
POINT
  8
СКВАЖИНЫ
 10
3463974.711
 20
1889319.038
 30
0.0
  0
TEXT
  8
ПОДПИСИ
 10
3463975.211
 20
1889319.538
 30
0.0
 40
1.5
  1
СКВ-117 (H=15, d=108, УГВ=, Скв.?73) (факт)
  0
POINT
  8
СКВАЖИНЫ
 10
3463889.902
 20
1889500.287
 30
0.0
  0
TEXT
  8
ПОДПИСИ
 10
3463890.402
 20
1889500.787
 30
0.0
 40
1.5
  1
СКВ-118 (H=15, d=108, УГВ=, Скв.?72) (факт)
  0
POINT
  8
СКВАЖИНЫ
 10
3463934.997
 20
1889687.156
 30
0.0
  0
TEXT
  8
ПОДПИСИ
 10
3463935.497
 20
1889687.656
 30
0.0
 40
1.5
  1
СКВ-119 (H=15, d=108, УГВ=, скв: 71 ( 1.1 - 5.4 лёд)) (факт)
  0
POINT
  8
СКВАЖИНЫ
 10
3464002.881
 20
1889875.460
 30
0.0
  0
TEXT
  8
ПОДПИСИ
 10
3464003.381
 20
1889875.960
 30
0.0
 40
1.5
  1
СКВ-120 (H=15, d=108, УГВ=, Скв.?70) (факт)
  0
POINT
  8
СКВАЖИНЫ
 10
3464071.068
 20
1890063.537
 30
0.0
  0
TEXT
  8
ПОДПИСИ
 10
3464071.568
 20
1890064.037
 30
0.0
 40
1.5
  1
СКВ-121 (H=15, d=108, УГВ=, Скв.?69) (факт)
  0
POINT
  8
СКВАЖИНЫ
 10
3464139.137
 20
1890251.391
 30
0.0
  0
TEXT
  8
ПОДПИСИ
 10
3464139.637
 20
1890251.891
 30
0.0
 40
1.5
  1
СКВ-122 (H=15, d=108, УГВ=, Скв.?68) (факт)
  0
POINT
  8
СКВАЖИНЫ
 10
3464206.987
 20
1890439.446
 30
0.0
  0
TEXT
  8
ПОДПИСИ
 10
3464207.487
 20
1890439.946
 30
0.0
 40
1.5
  1
СКВ-123 (H=15, d=108, УГВ=, скв: 67 ( 0.1 - 1.0 торф)(1.0 - 4.4 лёд)) (факт)
  0
POINT
  8
СКВАЖИНЫ
 10
3464166.182
 20
1890608.255
 30
0.0
  0
TEXT
  8
ПОДПИСИ
 10
3464166.682
 20
1890608.755
 30
0.0
 40
1.5
  1
СКВ-124 (H=15, d=108, УГВ=, скв: 66 ( 12.1 - 14.0 ледогрунт)) (факт)
  0
POINT
  8
СКВАЖИНЫ
 10
3464037.139
 20
1890761.313
 30
0.0
  0
TEXT
  8
ПОДПИСИ
 10
3464037.639
 20
1890761.813
 30
0.0
 40
1.5
  1
СКВ-125 (H=15, d=108, УГВ=, Скв.?65) (факт)
  0
POINT
  8
СКВАЖИНЫ
 10
3463908.318
 20
1890914.049
 30
0.0
  0
TEXT
  8
ПОДПИСИ
 10
3463908.818
 20
1890914.549
 30
0.0
 40
1.5
  1
СКВ-126 (H=15, d=108, УГВ=, Скв.?64) (факт)
  0
POINT
  8
СКВАЖИНЫ
 10
3463779.305
 20
1891066.892
 30
0.0
  0
TEXT
  8
ПОДПИСИ
 10
3463779.805
 20
1891067.392
 30
0.0
 40
1.5
  1
СКВ-127 (H=15, d=108, УГВ=, Скв.?63) (факт)
  0
POINT
  8
СКВАЖИНЫ
 10
3463650.521
 20
1891219.834
 30
0.0
  0
TEXT
  8
ПОДПИСИ
 10
3463651.021
 20
1891220.334
 30
0.0
 40
1.5
  1
СКВ-128 (H=15, d=108, УГВ=, Скв.?62) (факт)
  0
POINT
  8
СКВАЖИНЫ
 10
3463521.645
 20
1891372.670
 30
0.0
  0
TEXT
  8
ПОДПИСИ
 10
3463522.145
 20
1891373.170
 30
0.0
 40
1.5
  1
СКВ-129 (H=15, d=108, УГВ=, Скв.?61) (факт)
  0
POINT
  8
СКВАЖИНЫ
 10
3463392.788
 20
1891525.609
 30
0.0
  0
TEXT
  8
ПОДПИСИ
 10
3463393.288
 20
1891526.109
 30
0.0
 40
1.5
  1
СКВ-130 (H=15, d=108, УГВ=, Скв.?60) (факт)
  0
POINT
  8
СКВАЖИНЫ
 10
3463263.637
 20
1891678.866
 30
0.0
  0
TEXT
  8
ПОДПИСИ
 10
3463264.137
 20
1891679.366
 30
0.0
 40
1.5
  1
СКВ-131 (H=15, d=108, УГВ=, Скв.?59) (факт)
  0
POINT
  8
СКВАЖИНЫ
 10
3463134.914
 20
1891831.587
 30
0.0
  0
TEXT
  8
ПОДПИСИ
 10
3463135.414
 20
1891832.087
 30
0.0
 40
1.5
  1
СКВ-132 (H=15, d=108, УГВ=, Скв.?58) (факт)
  0
POINT
  8
СКВАЖИНЫ
 10
3463006.108
 20
1891984.624
 30
0.0
  0
TEXT
  8
ПОДПИСИ
 10
3463006.608
 20
1891985.124
 30
0.0
 40
1.5
  1
СКВ-133 (H=15, d=108, УГВ=, Скв.?57) (факт)
  0
POINT
  8
СКВАЖИНЫ
 10
3462877.105
 20
1892137.451
 30
0.0
  0
TEXT
  8
ПОДПИСИ
 10
3462877.605
 20
1892137.951
 30
0.0
 40
1.5
  1
СКВ-134 (H=15, d=108, УГВ=, Скв.?56) (факт)
  0
POINT
  8
СКВАЖИНЫ
 10
3462748.119
 20
1892290.380
 30
0.0
  0
TEXT
  8
ПОДПИСИ
 10
3462748.619
 20
1892290.880
 30
0.0
 40
1.5
  1
СКВ-135 (H=15, d=108, УГВ=, Скв.?55) (факт)
  0
POINT
  8
СКВАЖИНЫ
 10
3462618.083
 20
1892442.376
 30
0.0
  0
TEXT
  8
ПОДПИСИ
 10
3462618.583
 20
1892442.876
 30
0.0
 40
1.5
  1
СКВ-136 (H=15, d=108, УГВ=, Скв.?54) (факт)
  0
POINT
  8
СКВАЖИНЫ
 10
3462476.410
 20
1892583.398
 30
0.0
  0
TEXT
  8
ПОДПИСИ
 10
3462476.910
 20
1892583.898
 30
0.0
 40
1.5
  1
СКВ-137 (H=15, d=108, УГВ=, Скв.?53) (факт)
  0
POINT
  8
СКВАЖИНЫ
 10
3462334.646
 20
1892724.211
 30
0.0
  0
TEXT
  8
ПОДПИСИ
 10
3462335.146
 20
1892724.711
 30
0.0
 40
1.5
  1
СКВ-138 (H=15, d=108, УГВ=, Скв.?52) (факт)
  0
POINT
  8
СКВАЖИНЫ
 10
3462246.488
 20
1892810.621
 30
0.0
  0
TEXT
  8
ПОДПИСИ
 10
3462246.988
 20
1892811.121
 30
0.0
 40
1.5
  1
СКВ-139 (H=15, d=108, УГВ=, Скв.?51) (факт)
  0
POINT
  8
СКВАЖИНЫ
 10
3462192.907
 20
1892865.551
 30
0.0
  0
TEXT
  8
ПОДПИСИ
 10
3462193.407
 20
1892866.051
 30
0.0
 40
1.5
  1
СКВ-140 (H=15, d=108, УГВ=, Скв.?50) (факт)
  0
POINT
  8
СКВАЖИНЫ
 10
3462051.180
 20
1893006.575
 30
0.0
  0
TEXT
  8
ПОДПИСИ
 10
3462051.680
 20
1893007.075
 30
0.0
 40
1.5
  1
СКВ-141 (H=15, d=108, УГВ=, Скв.?49) (факт)
  0
POINT
  8
СКВАЖИНЫ
 10
3461909.576
 20
1893147.703
 30
0.0
  0
TEXT
  8
ПОДПИСИ
 10
3461910.076
 20
1893148.203
 30
0.0
 40
1.5
  1
СКВ-142 (H=15, d=108, УГВ=, Скв.?48) (факт)
  0
POINT
  8
СКВАЖИНЫ
 10
3461767.776
 20
1893288.730
 30
0.0
  0
TEXT
  8
ПОДПИСИ
 10
3461768.276
 20
1893289.230
 30
0.0
 40
1.5
  1
СКВ-143 (H=15, d=108, УГВ=, Скв.?47) (факт)
  0
POINT
  8
СКВАЖИНЫ
 10
3461625.997
 20
1893429.968
 30
0.0
  0
TEXT
  8
ПОДПИСИ
 10
3461626.497
 20
1893430.468
 30
0.0
 40
1.5
  1
СКВ-144 (H=15, d=108, УГВ=, Скв.?46) (факт)
  0
POINT
  8
СКВАЖИНЫ
 10
3461475.013
 20
1893560.835
 30
0.0
  0
TEXT
  8
ПОДПИСИ
 10
3461475.513
 20
1893561.335
 30
0.0
 40
1.5
  1
СКВ-145 (H=15, d=108, УГВ=, Скв.?45) (факт)
  0
POINT
  8
СКВАЖИНЫ
 10
3461321.477
 20
1893689.116
 30
0.0
  0
TEXT
  8
ПОДПИСИ
 10
3461321.977
 20
1893689.616
 30
0.0
 40
1.5
  1
СКВ-146 (H=15, d=108, УГВ=, Скв.?44) (факт)
  0
POINT
  8
СКВАЖИНЫ
 10
3490592.262
 20
1824139.924
 30
0.0
  0
TEXT
  8
ПОДПИСИ
 10
3490592.762
 20
1824140.424
 30
0.0
 40
1.5
  1
СКВ-147 (H=15, d=108, УГВ=, скв. 530 ( 1.4 - 2.6 талый грунт )) (факт)
  0
POINT
  8
СКВАЖИНЫ
 10
3490859.282
 20
1823842.230
 30
0.0
  0
TEXT
  8
ПОДПИСИ
 10
3490859.782
 20
1823842.730
 30
0.0
 40
1.5
  1
СКВ-148 (H=15, d=108, УГВ=, Скв.?532) (факт)
  0
POINT
  8
СКВАЖИНЫ
 10
3490992.599
 20
1823693.057
 30
0.0
  0
TEXT
  8
ПОДПИСИ
 10
3490993.099
 20
1823693.557
 30
0.0
 40
1.5
  1
СКВ-149 (H=15, d=108, УГВ=, Скв.?533) (факт)
  0
POINT
  8
СКВАЖИНЫ
 10
3491116.810
 20
1823537.638
 30
0.0
  0
TEXT
  8
ПОДПИСИ
 10
3491117.310
 20
1823538.138
 30
0.0
 40
1.5
  1
СКВ-150 (H=15, d=108, УГВ=, Скв.?534) (факт)
  0
POINT
  8
СКВАЖИНЫ
 10
3490587.305
 20
1824316.078
 30
0.0
  0
TEXT
  8
ПОДПИСИ
 10
3490587.805
 20
1824316.578
 30
0.0
 40
1.5
  1
СКВ-151 (H=15, d=108, УГВ=, скв. 529 ( 1.6 - 2.6 талый грунт )) (факт)
  0
POINT
  8
СКВАЖИНЫ
 10
3491207.159
 20
1823359.609
 30
0.0
  0
TEXT
  8
ПОДПИСИ
 10
3491207.659
 20
1823360.109
 30
0.0
 40
1.5
  1
СКВ-152 (H=15, d=108, УГВ=, Скв.?535) (факт)
  0
POINT
  8
СКВАЖИНЫ
 10
3491297.303
 20
1823180.921
 30
0.0
  0
TEXT
  8
ПОДПИСИ
 10
3491297.803
 20
1823181.421
 30
0.0
 40
1.5
  1
СКВ-153 (H=15, d=108, УГВ=, Скв.?536) (факт)
  0
POINT
  8
СКВАЖИНЫ
 10
3491387.677
 20
1823002.440
 30
0.0
  0
TEXT
  8
ПОДПИСИ
 10
3491388.177
 20
1823002.940
 30
0.0
 40
1.5
  1
СКВ-154 (H=15, d=108, УГВ=, Скв.?537) (факт)
  0
POINT
  8
СКВАЖИНЫ
 10
3491307.760
 20
1822675.803
 30
0.0
  0
TEXT
  8
ПОДПИСИ
 10
3491308.260
 20
1822676.303
 30
0.0
 40
1.5
  1
СКВ-155 (H=15, d=108, УГВ=, Скв.?539) (факт)
  0
POINT
  8
СКВАЖИНЫ
 10
3491291.001
 20
1822624.655
 30
0.0
  0
TEXT
  8
ПОДПИСИ
 10
3491291.501
 20
1822625.155
 30
0.0
 40
1.5
  1
СКВ-156 (H=15, d=108, УГВ=, Скв.?540) (факт)
  0
POINT
  8
СКВАЖИНЫ
 10
3491228.777
 20
1822434.439
 30
0.0
  0
TEXT
  8
ПОДПИСИ
 10
3491229.277
 20
1822434.939
 30
0.0
 40
1.5
  1
СКВ-157 (H=15, d=108, УГВ=, скв: 541 (0.0 - 1.2 торф) ( 1.2 - 3.9 ледогрунт)) (факт)
  0
POINT
  8
СКВАЖИНЫ
 10
3491252.792
 20
1822239.787
 30
0.0
  0
TEXT
  8
ПОДПИСИ
 10
3491253.292
 20
1822240.287
 30
0.0
 40
1.5
  1
СКВ-158 (H=15, d=108, УГВ=, Скв.?542) (факт)
  0
POINT
  8
СКВАЖИНЫ
 10
3491323.009
 20
1822052.753
 30
0.0
  0
TEXT
  8
ПОДПИСИ
 10
3491323.509
 20
1822053.253
 30
0.0
 40
1.5
  1
СКВ-159 (H=15, d=108, УГВ=, Скв. 544 ( 1.4 -2.0 лёд )) (факт)
  0
POINT
  8
СКВАЖИНЫ
 10
3491397.801
 20
1821869.265
 30
0.0
  0
TEXT
  8
ПОДПИСИ
 10
3491398.301
 20
1821869.765
 30
0.0
 40
1.5
  1
СКВ-160 (H=15, d=108, УГВ=, Скв.?545) (факт)
  0
POINT
  8
СКВАЖИНЫ
 10
3491471.723
 20
1821681.870
 30
0.0
  0
TEXT
  8
ПОДПИСИ
 10
3491472.223
 20
1821682.370
 30
0.0
 40
1.5
  1
СКВ-161 (H=15, d=108, УГВ=, Скв.?546) (факт)
  0
POINT
  8
СКВАЖИНЫ
 10
3491546.095
 20
1821495.762
 30
0.0
  0
TEXT
  8
ПОДПИСИ
 10
3491546.595
 20
1821496.262
 30
0.0
 40
1.5
  1
СКВ-162 (H=15, d=108, УГВ=, Скв.?547) (факт)
  0
POINT
  8
СКВАЖИНЫ
 10
3491620.588
 20
1821310.291
 30
0.0
  0
TEXT
  8
ПОДПИСИ
 10
3491621.088
 20
1821310.791
 30
0.0
 40
1.5
  1
СКВ-163 (H=15, d=108, УГВ=, Скв.?548) (факт)
  0
POINT
  8
СКВАЖИНЫ
 10
3490725.548
 20
1823991.187
 30
0.0
  0
TEXT
  8
ПОДПИСИ
 10
3490726.048
 20
1823991.687
 30
0.0
 40
1.5
  1
СКВ-164 (H=15, d=108, УГВ=, Скв.?531) (факт)
  0
POINT
  8
СКВАЖИНЫ
 10
3461153.584
 20
1893794.388
 30
0.0
  0
TEXT
  8
ПОДПИСИ
 10
3461154.084
 20
1893794.888
 30
0.0
 40
1.5
  1
СКВ-165 (H=15, d=108, УГВ=, скв: 43 ( 5.5 - 6.0 ледогрунт )) (факт)
  0
POINT
  8
СКВАЖИНЫ
 10
3459560.006
 20
1895399.165
 30
0.0
  0
TEXT
  8
ПОДПИСИ
 10
3459560.506
 20
1895399.665
 30
0.0
 40
1.5
  1
СКВ-166 (H=15, d=108, УГВ=, скв: 30 ( 0.1 - 0.3 лёд, 2.8 - 5.8 талый грунт)) (факт)
  0
POINT
  8
СКВАЖИНЫ
 10
3459679.539
 20
1895200.470
 30
0.0
  0
TEXT
  8
ПОДПИСИ
 10
3459680.039
 20
1895200.970
 30
0.0
 40
1.5
  1
СКВ-167 (H=15, d=108, УГВ=, скв: 32 ( 0.4 - 2.5 талый грунт )) (факт)
  0
POINT
  8
СКВАЖИНЫ
 10
3459579.636
 20
1895371.714
 30
0.0
  0
TEXT
  8
ПОДПИСИ
 10
3459580.136
 20
1895372.214
 30
0.0
 40
1.5
  1
СКВ-168 (H=15, d=108, УГВ=, Скв.?31) (факт)
  0
POINT
  8
СКВАЖИНЫ
 10
3459748.240
 20
1895012.500
 30
0.0
  0
TEXT
  8
ПОДПИСИ
 10
3459748.740
 20
1895013.000
 30
0.0
 40
1.5
  1
СКВ-169 (H=15, d=108, УГВ=, Скв.?33) (факт)
  0
POINT
  8
СКВАЖИНЫ
 10
3459885.998
 20
1894636.939
 30
0.0
  0
TEXT
  8
ПОДПИСИ
 10
3459886.498
 20
1894637.439
 30
0.0
 40
1.5
  1
СКВ-170 (H=15, d=108, УГВ=, Скв.?35) (факт)
  0
POINT
  8
СКВАЖИНЫ
 10
3459954.946
 20
1894449.139
 30
0.0
  0
TEXT
  8
ПОДПИСИ
 10
3459955.446
 20
1894449.639
 30
0.0
 40
1.5
  1
СКВ-171 (H=15, d=108, УГВ=, Скв.?36) (факт)
  0
POINT
  8
СКВАЖИНЫ
 10
3460064.740
 20
1894299.030
 30
0.0
  0
TEXT
  8
ПОДПИСИ
 10
3460065.240
 20
1894299.530
 30
0.0
 40
1.5
  1
СКВ-172 (H=15, d=108, УГВ=, Скв.?37) (факт)
  0
POINT
  8
СКВАЖИНЫ
 10
3460246.163
 20
1894214.721
 30
0.0
  0
TEXT
  8
ПОДПИСИ
 10
3460246.663
 20
1894215.221
 30
0.0
 40
1.5
  1
СКВ-173 (H=15, d=108, УГВ=, Скв.?38) (факт)
  0
POINT
  8
СКВАЖИНЫ
 10
3460427.603
 20
1894130.738
 30
0.0
  0
TEXT
  8
ПОДПИСИ
 10
3460428.103
 20
1894131.238
 30
0.0
 40
1.5
  1
СКВ-174 (H=15, d=108, УГВ=, Скв: 39 ( 5.0 - 6.4 лёд )) (факт)
  0
POINT
  8
СКВАЖИНЫ
 10
3460609.055
 20
1894046.765
 30
0.0
  0
TEXT
  8
ПОДПИСИ
 10
3460609.555
 20
1894047.265
 30
0.0
 40
1.5
  1
СКВ-175 (H=15, d=108, УГВ=, Скв.?40) (факт)
  0
POINT
  8
СКВАЖИНЫ
 10
3460790.515
 20
1893962.489
 30
0.0
  0
TEXT
  8
ПОДПИСИ
 10
3460791.015
 20
1893962.989
 30
0.0
 40
1.5
  1
СКВ-176 (H=15, d=108, УГВ=, Скв.?41) (факт)
  0
POINT
  8
СКВАЖИНЫ
 10
3460971.992
 20
1893878.539
 30
0.0
  0
TEXT
  8
ПОДПИСИ
 10
3460972.492
 20
1893879.039
 30
0.0
 40
1.5
  1
СКВ-177 (H=15, d=108, УГВ=, Скв.?42) (факт)
  0
POINT
  8
СКВАЖИНЫ
 10
3490712.262
 20
1824889.469
 30
0.0
  0
TEXT
  8
ПОДПИСИ
 10
3490712.762
 20
1824889.969
 30
0.0
 40
1.5
  1
СКВ-178 (H=15, d=108, УГВ=, Скв.?526) (факт)
  0
POINT
  8
СКВАЖИНЫ
 10
3490671.217
 20
1825085.390
 30
0.0
  0
TEXT
  8
ПОДПИСИ
 10
3490671.717
 20
1825085.890
 30
0.0
 40
1.5
  1
СКВ-179 (H=15, d=108, УГВ=, Скв.?525) (факт)
  0
POINT
  8
СКВАЖИНЫ
 10
3490547.797
 20
1825672.525
 30
0.0
  0
TEXT
  8
ПОДПИСИ
 10
3490548.297
 20
1825673.025
 30
0.0
 40
1.5
  1
СКВ-180 (H=15, d=108, УГВ=, Скв.?522) (факт)
  0
POINT
  8
СКВАЖИНЫ
 10
3490506.887
 20
1825868.278
 30
0.0
  0
TEXT
  8
ПОДПИСИ
 10
3490507.387
 20
1825868.778
 30
0.0
 40
1.5
  1
СКВ-181 (H=15, d=108, УГВ=, Скв.?521) (факт)
  0
POINT
  8
СКВАЖИНЫ
 10
3490383.438
 20
1826455.453
 30
0.0
  0
TEXT
  8
ПОДПИСИ
 10
3490383.938
 20
1826455.953
 30
0.0
 40
1.5
  1
СКВ-182 (H=15, d=108, УГВ=, Скв.?518) (факт)
  0
POINT
  8
СКВАЖИНЫ
 10
3490342.446
 20
1826651.148
 30
0.0
  0
TEXT
  8
ПОДПИСИ
 10
3490342.946
 20
1826651.648
 30
0.0
 40
1.5
  1
СКВ-183 (H=15, d=108, УГВ=, Скв.?517) (факт)
  0
POINT
  8
СКВАЖИНЫ
 10
3490465.659
 20
1826064.018
 30
0.0
  0
TEXT
  8
ПОДПИСИ
 10
3490466.159
 20
1826064.518
 30
0.0
 40
1.5
  1
СКВ-184 (H=15, d=108, УГВ=, Скв.?520) (факт)
  0
POINT
  8
СКВАЖИНЫ
 10
3490424.653
 20
1826259.634
 30
0.0
  0
TEXT
  8
ПОДПИСИ
 10
3490425.153
 20
1826260.134
 30
0.0
 40
1.5
  1
СКВ-185 (H=15, d=108, УГВ=, Скв.?519) (факт)
  0
POINT
  8
СКВАЖИНЫ
 10
3490588.931
 20
1825476.972
 30
0.0
  0
TEXT
  8
ПОДПИСИ
 10
3490589.431
 20
1825477.472
 30
0.0
 40
1.5
  1
СКВ-186 (H=15, d=108, УГВ=, Скв.?523) (факт)
  0
POINT
  8
СКВАЖИНЫ
 10
3490630.179
 20
1825280.971
 30
0.0
  0
TEXT
  8
ПОДПИСИ
 10
3490630.679
 20
1825281.471
 30
0.0
 40
1.5
  1
СКВ-187 (H=15, d=108, УГВ=, Скв.?524) (факт)
  0
POINT
  8
СКВАЖИНЫ
 10
3490711.640
 20
1824696.070
 30
0.0
  0
TEXT
  8
ПОДПИСИ
 10
3490712.140
 20
1824696.570
 30
0.0
 40
1.5
  1
СКВ-188 (H=15, d=108, УГВ=, Скв.?527) (факт)
  0
POINT
  8
СКВАЖИНЫ
 10
3490649.423
 20
1824506.134
 30
0.0
  0
TEXT
  8
ПОДПИСИ
 10
3490649.923
 20
1824506.634
 30
0.0
 40
1.5
  1
СКВ-189 (H=15, d=108, УГВ=, Скв.?528) (факт)
  0
POINT
  8
СКВАЖИНЫ
 10
3459817.061
 20
1894824.727
 30
0.0
  0
TEXT
  8
ПОДПИСИ
 10
3459817.561
 20
1894825.227
 30
0.0
 40
1.5
  1
СКВ-190 (H=15, d=108, УГВ=, Скв.?34) (факт)
  0
POINT
  8
СКВАЖИНЫ
 10
3490258.797
 20
1826836.081
 30
0.0
  0
TEXT
  8
ПОДПИСИ
 10
3490259.297
 20
1826836.581
 30
0.0
 40
1.5
  1
СКВ-191 (H=15, d=108, УГВ=, Скв.?516) (факт)
  0
POINT
  8
СКВАЖИНЫ
 10
3490136.822
 20
1827008.729
 30
0.0
  0
TEXT
  8
ПОДПИСИ
 10
3490137.322
 20
1827009.229
 30
0.0
 40
1.5
  1
СКВ-192 (H=15, d=108, УГВ=, Скв.?515) (факт)
  0
POINT
  8
СКВАЖИНЫ
 10
3489801.534
 20
1827483.831
 30
0.0
  0
TEXT
  8
ПОДПИСИ
 10
3489802.034
 20
1827484.331
 30
0.0
 40
1.5
  1
СКВ-193 (H=15, d=108, УГВ=, Скв.?512) (факт)
  0
POINT
  8
СКВАЖИНЫ
 10
3489686.180
 20
1827647.137
 30
0.0
  0
TEXT
  8
ПОДПИСИ
 10
3489686.680
 20
1827647.637
 30
0.0
 40
1.5
  1
СКВ-194 (H=15, d=108, УГВ=, Скв.?511) (факт)
  0
POINT
  8
СКВАЖИНЫ
 10
3489437.583
 20
1828127.854
 30
0.0
  0
TEXT
  8
ПОДПИСИ
 10
3489438.083
 20
1828128.354
 30
0.0
 40
1.5
  1
СКВ-195 (H=15, d=108, УГВ=, Скв.?508) (факт)
  0
POINT
  8
СКВАЖИНЫ
 10
3489454.203
 20
1828171.207
 30
0.0
  0
TEXT
  8
ПОДПИСИ
 10
3489454.703
 20
1828171.707
 30
0.0
 40
1.5
  1
СКВ-196 (H=15, d=108, УГВ=, Cкв: 507 (1.5 - 3.0 талый грунт)) (факт)
  0
POINT
  8
СКВАЖИНЫ
 10
3489917.011
 20
1827320.411
 30
0.0
  0
TEXT
  8
ПОДПИСИ
 10
3489917.511
 20
1827320.911
 30
0.0
 40
1.5
  1
СКВ-197 (H=15, d=108, УГВ=, Скв.?513) (факт)
  0
POINT
  8
СКВАЖИНЫ
 10
3489571.058
 20
1827810.545
 30
0.0
  0
TEXT
  8
ПОДПИСИ
 10
3489571.558
 20
1827811.045
 30
0.0
 40
1.5
  1
СКВ-198 (H=15, d=108, УГВ=, Скв.?510) (факт)
  0
POINT
  8
СКВАЖИНЫ
 10
3489478.175
 20
1827987.572
 30
0.0
  0
TEXT
  8
ПОДПИСИ
 10
3489478.675
 20
1827988.072
 30
0.0
 40
1.5
  1
СКВ-199 (H=15, d=108, УГВ=, Скв.?509) (факт)
  0
POINT
  8
СКВАЖИНЫ
 10
3489516.097
 20
1828360.942
 30
0.0
  0
TEXT
  8
ПОДПИСИ
 10
3489516.597
 20
1828361.442
 30
0.0
 40
1.5
  1
СКВ-200 (H=15, d=108, УГВ=, Скв.?506) (факт)
  0
POINT
  8
СКВАЖИНЫ
 10
3489578.633
 20
1828551.417
 30
0.0
  0
TEXT
  8
ПОДПИСИ
 10
3489579.133
 20
1828551.917
 30
0.0
 40
1.5
  1
СКВ-201 (H=15, d=108, УГВ=, Скв.?504) (факт)
  0
POINT
  8
СКВАЖИНЫ
 10
3489476.521
 20
1828914.284
 30
0.0
  0
TEXT
  8
ПОДПИСИ
 10
3489477.021
 20
1828914.784
 30
0.0
 40
1.5
  1
СКВ-202 (H=15, d=108, УГВ=, Скв.?501) (факт)
  0
POINT
  8
СКВАЖИНЫ
 10
3459232.045
 20
1895860.258
 30
0.0
  0
TEXT
  8
ПОДПИСИ
 10
3459232.545
 20
1895860.758
 30
0.0
 40
1.5
  1
СКВ-203 (H=15, d=108, УГВ=, скв: 27 ( 1.4 - 3.0 лед )) (факт)
  0
POINT
  8
СКВАЖИНЫ
 10
3459463.615
 20
1895534.499
 30
0.0
  0
TEXT
  8
ПОДПИСИ
 10
3459464.115
 20
1895534.999
 30
0.0
 40
1.5
  1
СКВ-204 (H=15, d=108, УГВ=, Скв.?29) (факт)
  0
POINT
  8
СКВАЖИНЫ
 10
3459347.722
 20
1895697.698
 30
0.0
  0
TEXT
  8
ПОДПИСИ
 10
3459348.222
 20
1895698.198
 30
0.0
 40
1.5
  1
СКВ-205 (H=15, d=108, УГВ=, Скв.?28) (факт)
  0
POINT
  8
СКВАЖИНЫ
 10
3459072.212
 20
1895973.754
 30
0.0
  0
TEXT
  8
ПОДПИСИ
 10
3459072.712
 20
1895974.254
 30
0.0
 40
1.5
  1
СКВ-206 (H=15, d=108, УГВ=, Скв.?26) (факт)
  0
POINT
  8
СКВАЖИНЫ
 10
3456319.874
 20
1897463.423
 30
0.0
  0
TEXT
  8
ПОДПИСИ
 10
3456320.374
 20
1897463.923
 30
0.0
 40
1.5
  1
СКВ-207 (H=15, d=108, УГВ=, Скв.?9) (факт)
  0
POINT
  8
СКВАЖИНЫ
 10
3458012.834
 20
1896537.256
 30
0.0
  0
TEXT
  8
ПОДПИСИ
 10
3458013.334
 20
1896537.756
 30
0.0
 40
1.5
  1
СКВ-208 (H=15, d=108, УГВ=, Скв: 20 ( 1.1 - 3.0 торф )) (факт)
  0
POINT
  8
СКВАЖИНЫ
 10
3458895.866
 20
1896067.993
 30
0.0
  0
TEXT
  8
ПОДПИСИ
 10
3458896.366
 20
1896068.493
 30
0.0
 40
1.5
  1
СКВ-209 (H=15, d=108, УГВ=, Скв.?25) (факт)
  0
POINT
  8
СКВАЖИНЫ
 10
3458719.306
 20
1896161.194
 30
0.0
  0
TEXT
  8
ПОДПИСИ
 10
3458719.806
 20
1896161.694
 30
0.0
 40
1.5
  1
СКВ-210 (H=15, d=108, УГВ=, Скв.?24) (факт)
  0
POINT
  8
СКВАЖИНЫ
 10
3458542.777
 20
1896255.456
 30
0.0
  0
TEXT
  8
ПОДПИСИ
 10
3458543.277
 20
1896255.956
 30
0.0
 40
1.5
  1
СКВ-211 (H=15, d=108, УГВ=, Скв.?23) (факт)
  0
POINT
  8
СКВАЖИНЫ
 10
3458366.255
 20
1896349.308
 30
0.0
  0
TEXT
  8
ПОДПИСИ
 10
3458366.755
 20
1896349.808
 30
0.0
 40
1.5
  1
СКВ-212 (H=15, d=108, УГВ=, Скв.?22) (факт)
  0
POINT
  8
СКВАЖИНЫ
 10
3458189.329
 20
1896443.386
 30
0.0
  0
TEXT
  8
ПОДПИСИ
 10
3458189.829
 20
1896443.886
 30
0.0
 40
1.5
  1
СКВ-213 (H=15, d=108, УГВ=, Скв.?21) (факт)
  0
POINT
  8
СКВАЖИНЫ
 10
3457836.142
 20
1896631.140
 30
0.0
  0
TEXT
  8
ПОДПИСИ
 10
3457836.642
 20
1896631.640
 30
0.0
 40
1.5
  1
СКВ-214 (H=108, d=15, УГВ=, Скв.?19) (факт)
  0
POINT
  8
СКВАЖИНЫ
 10
3457704.057
 20
1896701.762
 30
0.0
  0
TEXT
  8
ПОДПИСИ
 10
3457704.557
 20
1896702.262
 30
0.0
 40
1.5
  1
СКВ-215 (H=15, d=108, УГВ=, Скв.?18) (факт)
  0
POINT
  8
СКВАЖИНЫ
 10
3457659.047
 20
1896725.251
 30
0.0
  0
TEXT
  8
ПОДПИСИ
 10
3457659.547
 20
1896725.751
 30
0.0
 40
1.5
  1
СКВ-216 (H=15, d=108, УГВ=, Скв.?17) (факт)
  0
POINT
  8
СКВАЖИНЫ
 10
3457483.224
 20
1896819.139
 30
0.0
  0
TEXT
  8
ПОДПИСИ
 10
3457483.724
 20
1896819.639
 30
0.0
 40
1.5
  1
СКВ-217 (H=15, d=108, УГВ=, Скв.?16) (факт)
  0
POINT
  8
СКВАЖИНЫ
 10
3457306.153
 20
1896913.059
 30
0.0
  0
TEXT
  8
ПОДПИСИ
 10
3457306.653
 20
1896913.559
 30
0.0
 40
1.5
  1
СКВ-218 (H=15, d=108, УГВ=, Скв.?15) (факт)
  0
POINT
  8
СКВАЖИНЫ
 10
3457140.725
 20
1897022.328
 30
0.0
  0
TEXT
  8
ПОДПИСИ
 10
3457141.225
 20
1897022.828
 30
0.0
 40
1.5
  1
СКВ-219 (H=15, d=108, УГВ=, Скв.?14) (факт)
  0
POINT
  8
СКВАЖИНЫ
 10
3489386.074
 20
1829093.709
 30
0.0
  0
TEXT
  8
ПОДПИСИ
 10
3489386.574
 20
1829094.209
 30
0.0
 40
1.5
  1
СКВ-220 (H=15, d=108, УГВ=, Скв.?500) (факт)
  0
POINT
  8
СКВАЖИНЫ
 10
3489297.365
 20
1829271.930
 30
0.0
  0
TEXT
  8
ПОДПИСИ
 10
3489297.865
 20
1829272.430
 30
0.0
 40
1.5
  1
СКВ-221 (H=15, d=108, УГВ=, Скв.?499) (факт)
  0
POINT
  8
СКВАЖИНЫ
 10
3489212.344
 20
1829450.860
 30
0.0
  0
TEXT
  8
ПОДПИСИ
 10
3489212.844
 20
1829451.360
 30
0.0
 40
1.5
  1
СКВ-222 (H=15, d=108, УГВ=, Скв.?498) (факт)
  0
POINT
  8
СКВАЖИНЫ
 10
3489125.627
 20
1829633.823
 30
0.0
  0
TEXT
  8
ПОДПИСИ
 10
3489126.127
 20
1829634.323
 30
0.0
 40
1.5
  1
СКВ-223 (H=15, d=108, УГВ=, Скв.?497) (факт)
  0
POINT
  8
СКВАЖИНЫ
 10
3489071.023
 20
1829819.527
 30
0.0
  0
TEXT
  8
ПОДПИСИ
 10
3489071.523
 20
1829820.027
 30
0.0
 40
1.5
  1
СКВ-224 (H=15, d=108, УГВ=, Скв.?496) (факт)
  0
POINT
  8
СКВАЖИНЫ
 10
3489087.576
 20
1830019.149
 30
0.0
  0
TEXT
  8
ПОДПИСИ
 10
3489088.076
 20
1830019.649
 30
0.0
 40
1.5
  1
СКВ-225 (H=15, d=108, УГВ=, Скв.?494) (факт)
  0
POINT
  8
СКВАЖИНЫ
 10
3489103.153
 20
1830218.436
 30
0.0
  0
TEXT
  8
ПОДПИСИ
 10
3489103.653
 20
1830218.936
 30
0.0
 40
1.5
  1
СКВ-226 (H=15, d=108, УГВ=, Скв.?493) (факт)
  0
POINT
  8
СКВАЖИНЫ
 10
3489129.410
 20
1830415.285
 30
0.0
  0
TEXT
  8
ПОДПИСИ
 10
3489129.910
 20
1830415.785
 30
0.0
 40
1.5
  1
СКВ-227 (H=15, d=108, УГВ=, Скв.?492) (факт)
  0
POINT
  8
СКВАЖИНЫ
 10
3489204.215
 20
1830600.574
 30
0.0
  0
TEXT
  8
ПОДПИСИ
 10
3489204.715
 20
1830601.074
 30
0.0
 40
1.5
  1
СКВ-228 (H=15, d=108, УГВ=, Скв.?490) (факт)
  0
POINT
  8
СКВАЖИНЫ
 10
3489279.335
 20
1830786.066
 30
0.0
  0
TEXT
  8
ПОДПИСИ
 10
3489279.835
 20
1830786.566
 30
0.0
 40
1.5
  1
СКВ-229 (H=15, d=108, УГВ=, Скв.?488) (факт)
  0
POINT
  8
СКВАЖИНЫ
 10
3489304.372
 20
1830979.964
 30
0.0
  0
TEXT
  8
ПОДПИСИ
 10
3489304.872
 20
1830980.464
 30
0.0
 40
1.5
  1
СКВ-230 (H=15, d=108, УГВ=, Скв.?487) (факт)
  0
POINT
  8
СКВАЖИНЫ
 10
3489268.281
 20
1831172.711
 30
0.0
  0
TEXT
  8
ПОДПИСИ
 10
3489268.781
 20
1831173.211
 30
0.0
 40
1.5
  1
СКВ-231 (H=15, d=108, УГВ=, Скв.?486) (факт)
  0
POINT
  8
СКВАЖИНЫ
 10
3456993.872
 20
1897158.161
 30
0.0
  0
TEXT
  8
ПОДПИСИ
 10
3456994.372
 20
1897158.661
 30
0.0
 40
1.5
  1
СКВ-232 (H=15, d=108, УГВ=, Скв.?13) (факт)
  0
POINT
  8
СКВАЖИНЫ
 10
3456848.093
 20
1897295.176
 30
0.0
  0
TEXT
  8
ПОДПИСИ
 10
3456848.593
 20
1897295.676
 30
0.0
 40
1.5
  1
СКВ-233 (H=15, d=108, УГВ=, Скв.?12) (факт)
  0
POINT
  8
СКВАЖИНЫ
 10
3456702.783
 20
1897432.307
 30
0.0
  0
TEXT
  8
ПОДПИСИ
 10
3456703.283
 20
1897432.807
 30
0.0
 40
1.5
  1
СКВ-234 (H=15, d=108, УГВ=, Скв.?11) (факт)
  0
POINT
  8
СКВАЖИНЫ
 10
3456518.587
 20
1897470.330
 30
0.0
  0
TEXT
  8
ПОДПИСИ
 10
3456519.087
 20
1897470.830
 30
0.0
 40
1.5
  1
СКВ-235 (H=15, d=108, УГВ=, Скв.?10) (факт)
  0
POINT
  8
СКВАЖИНЫ
 10
3456119.599
 20
1897456.374
 30
0.0
  0
TEXT
  8
ПОДПИСИ
 10
3456120.099
 20
1897456.874
 30
0.0
 40
1.5
  1
СКВ-236 (H=15, d=108, УГВ=, Скв.?8) (факт)
  0
POINT
  8
СКВАЖИНЫ
 10
3455923.937
 20
1897494.420
 30
0.0
  0
TEXT
  8
ПОДПИСИ
 10
3455924.437
 20
1897494.920
 30
0.0
 40
1.5
  1
СКВ-237 (H=15, d=108, УГВ=, Скв.?7) (факт)
  0
POINT
  8
СКВАЖИНЫ
 10
3455729.245
 20
1897539.186
 30
0.0
  0
TEXT
  8
ПОДПИСИ
 10
3455729.745
 20
1897539.686
 30
0.0
 40
1.5
  1
СКВ-238 (H=15, d=108, УГВ=, Скв.?6) (факт)
  0
POINT
  8
СКВАЖИНЫ
 10
3455534.898
 20
1897583.983
 30
0.0
  0
TEXT
  8
ПОДПИСИ
 10
3455535.398
 20
1897584.483
 30
0.0
 40
1.5
  1
СКВ-239 (H=15, d=108, УГВ=, Скв.?5) (факт)
  0
POINT
  8
СКВАЖИНЫ
 10
3455339.920
 20
1897628.922
 30
0.0
  0
TEXT
  8
ПОДПИСИ
 10
3455340.420
 20
1897629.422
 30
0.0
 40
1.5
  1
СКВ-240 (H=15, d=108, УГВ=, Скв.?4) (факт)
  0
POINT
  8
СКВАЖИНЫ
 10
3455142.068
 20
1897660.915
 30
0.0
  0
TEXT
  8
ПОДПИСИ
 10
3455142.568
 20
1897661.415
 30
0.0
 40
1.5
  1
СКВ-241 (H=15, d=108, УГВ=, Скв.?3) (факт)
  0
POINT
  8
СКВАЖИНЫ
 10
3454944.519
 20
1897687.926
 30
0.0
  0
TEXT
  8
ПОДПИСИ
 10
3454945.019
 20
1897688.426
 30
0.0
 40
1.5
  1
СКВ-242 (H=15, d=108, УГВ=, Скв.?2) (факт)
  0
POINT
  8
СКВАЖИНЫ
 10
3454745.782
 20
1897715.116
 30
0.0
  0
TEXT
  8
ПОДПИСИ
 10
3454746.282
 20
1897715.616
 30
0.0
 40
1.5
  1
Скв.?1 (H=15, d=108, УГВ=, Скв.?1) (факт)
  0
POINT
  8
СКВАЖИНЫ
 10
3489177.900
 20
1831351.358
 30
0.0
  0
TEXT
  8
ПОДПИСИ
 10
3489178.400
 20
1831351.858
 30
0.0
 40
1.5
  1
СКВ-244 (H=15, d=108, УГВ=, Скв.?485) (факт)
  0
POINT
  8
СКВАЖИНЫ
 10
3489087.699
 20
1831529.623
 30
0.0
  0
TEXT
  8
ПОДПИСИ
 10
3489088.199
 20
1831530.123
 30
0.0
 40
1.5
  1
СКВ-245 (H=15, d=108, УГВ=, Скв.?483) (факт)
  0
POINT
  8
СКВАЖИНЫ
 10
3488997.180
 20
1831708.208
 30
0.0
  0
TEXT
  8
ПОДПИСИ
 10
3488997.680
 20
1831708.708
 30
0.0
 40
1.5
  1
СКВ-246 (H=15, d=108, УГВ=, Скв.?482) (факт)
  0
POINT
  8
СКВАЖИНЫ
 10
3488906.820
 20
1831886.628
 30
0.0
  0
TEXT
  8
ПОДПИСИ
 10
3488907.320
 20
1831887.128
 30
0.0
 40
1.5
  1
СКВ-247 (H=15, d=108, УГВ=, Скв.?481) (факт)
  0
POINT
  8
СКВАЖИНЫ
 10
3488816.460
 20
1832065.058
 30
0.0
  0
TEXT
  8
ПОДПИСИ
 10
3488816.960
 20
1832065.558
 30
0.0
 40
1.5
  1
СКВ-248 (H=15, d=108, УГВ=, Скв.?480) (факт)
  0
POINT
  8
СКВАЖИНЫ
 10
3488726.100
 20
1832243.478
 30
0.0
  0
TEXT
  8
ПОДПИСИ
 10
3488726.600
 20
1832243.978
 30
0.0
 40
1.5
  1
СКВ-249 (H=15, d=108, УГВ=, Скв.?479) (факт)
  0
POINT
  8
СКВАЖИНЫ
 10
3488606.290
 20
1832401.768
 30
0.0
  0
TEXT
  8
ПОДПИСИ
 10
3488606.790
 20
1832402.268
 30
0.0
 40
1.5
  1
СКВ-250 (H=15, d=108, УГВ=, скв. 478 ( 14.0 - 15.0 лёд, углубление до 16м)) (факт)
  0
POINT
  8
СКВАЖИНЫ
 10
3488472.830
 20
1832550.728
 30
0.0
  0
TEXT
  8
ПОДПИСИ
 10
3488473.330
 20
1832551.228
 30
0.0
 40
1.5
  1
СКВ-251 (H=15, d=108, УГВ=, скв.477 ( 0.1 - 1.0 торф)) (факт)
  0
POINT
  8
СКВАЖИНЫ
 10
3488401.330
 20
1832630.528
 30
0.0
  0
TEXT
  8
ПОДПИСИ
 10
3488401.830
 20
1832631.028
 30
0.0
 40
1.5
  1
СКВ-252 (H=15, d=108, УГВ=, Cкв: 476 (0.0 - 0.1 лёд, 0.1 - 0.6 торф, 1.5 - 2.5 лёд)) (факт)
  0
POINT
  8
СКВАЖИНЫ
 10
3488339.370
 20
1832699.688
 30
0.0
  0
TEXT
  8
ПОДПИСИ
 10
3488339.870
 20
1832700.188
 30
0.0
 40
1.5
  1
СКВ-253 (H=15, d=108, УГВ=, Cкв: 475 ( 3.8 - 4.4 лёд )) (факт)
  0
POINT
  8
СКВАЖИНЫ
 10
3488205.910
 20
1832848.638
 30
0.0
  0
TEXT
  8
ПОДПИСИ
 10
3488206.410
 20
1832849.138
 30
0.0
 40
1.5
  1
СКВ-254 (H=15, d=108, УГВ=, Скв.?474) (факт)
  0
POINT
  8
СКВАЖИНЫ
 10
3488072.450
 20
1832997.598
 30
0.0
  0
TEXT
  8
ПОДПИСИ
 10
3488072.950
 20
1832998.098
 30
0.0
 40
1.5
  1
СКВ-255 (H=15, d=108, УГВ=, Скв.?473) (факт)
  0
POINT
  8
СКВАЖИНЫ
 10
3487903.320
 20
1833072.248
 30
0.0
  0
TEXT
  8
ПОДПИСИ
 10
3487903.820
 20
1833072.748
 30
0.0
 40
1.5
  1
СКВ-256 (H=15, d=108, УГВ=, Скв.?472) (факт)
  0
POINT
  8
СКВАЖИНЫ
 10
3487703.620
 20
1833083.208
 30
0.0
  0
TEXT
  8
ПОДПИСИ
 10
3487704.120
 20
1833083.708
 30
0.0
 40
1.5
  1
СКВ-257 (H=15, d=108, УГВ=, Скв.?471) (факт)
  0
POINT
  8
СКВАЖИНЫ
 10
3487104.520
 20
1833116.078
 30
0.0
  0
TEXT
  8
ПОДПИСИ
 10
3487105.020
 20
1833116.578
 30
0.0
 40
1.5
  1
СКВ-258 (H=15, d=108, УГВ=, Скв.?468) (факт)
  0
POINT
  8
СКВАЖИНЫ
 10
3486904.820
 20
1833127.038
 30
0.0
  0
TEXT
  8
ПОДПИСИ
 10
3486905.320
 20
1833127.538
 30
0.0
 40
1.5
  1
СКВ-259 (H=15, d=108, УГВ=, Скв.?467) (факт)
  0
POINT
  8
СКВАЖИНЫ
 10
3486333.650
 20
1833308.568
 30
0.0
  0
TEXT
  8
ПОДПИСИ
 10
3486334.150
 20
1833309.068
 30
0.0
 40
1.5
  1
СКВ-260 (H=15, d=108, УГВ=, Cкв: 464 ( 5.3 - 6.4 ледогрунт, 9.4 - 12.0 лёд )) (факт)
  0
POINT
  8
СКВАЖИНЫ
 10
3486143.590
 20
1833370.838
 30
0.0
  0
TEXT
  8
ПОДПИСИ
 10
3486144.090
 20
1833371.338
 30
0.0
 40
1.5
  1
СКВ-261 (H=15, d=108, УГВ=, Cкв: 463 ( 1.6 - 2.3 талый грунт, термотруба 17м )) (факт)
  0
POINT
  8
СКВАЖИНЫ
 10
3487503.920
 20
1833094.168
 30
0.0
  0
TEXT
  8
ПОДПИСИ
 10
3487504.420
 20
1833094.668
 30
0.0
 40
1.5
  1
СКВ-262 (H=15, d=108, УГВ=, Скв.?470) (факт)
  0
POINT
  8
СКВАЖИНЫ
 10
3487304.220
 20
1833105.118
 30
0.0
  0
TEXT
  8
ПОДПИСИ
 10
3487304.720
 20
1833105.618
 30
0.0
 40
1.5
  1
СКВ-263 (H=15, d=108, УГВ=, Скв.?469) (факт)
  0
POINT
  8
СКВАЖИНЫ
 10
3486713.770
 20
1833184.028
 30
0.0
  0
TEXT
  8
ПОДПИСИ
 10
3486714.270
 20
1833184.528
 30
0.0
 40
1.5
  1
СКВ-264 (H=15, d=108, УГВ=, Скв.?466) (факт)
  0
POINT
  8
СКВАЖИНЫ
 10
3486523.710
 20
1833246.298
 30
0.0
  0
TEXT
  8
ПОДПИСИ
 10
3486524.210
 20
1833246.798
 30
0.0
 40
1.5
  1
СКВ-265 (H=15, d=108, УГВ=, Скв.?465) (факт)
  0
POINT
  8
СКВАЖИНЫ
 10
3485953.540
 20
1833433.108
 30
0.0
  0
TEXT
  8
ПОДПИСИ
 10
3485954.040
 20
1833433.608
 30
0.0
 40
1.5
  1
СКВ-266 (H=15, d=108, УГВ=, Скв.?462) (факт)
  0
POINT
  8
СКВАЖИНЫ
 10
3485827.190
 20
1833552.468
 30
0.0
  0
TEXT
  8
ПОДПИСИ
 10
3485827.690
 20
1833552.968
 30
0.0
 40
1.5
  1
СКВ-267 (H=15, d=108, УГВ=, Скв.?461) (факт)
  0
POINT
  8
СКВАЖИНЫ
 10
3476826.340
 20
1875765.488
 30
0.0
  0
TEXT
  8
ПОДПИСИ
 10
3476826.840
 20
1875765.988
 30
0.0
 40
1.5
  1
СКВ-268 (H=15, d=108, УГВ=, Скв. ?190) (факт)
  0
POINT
  8
СКВАЖИНЫ
 10
3476859.730
 20
1875576.138
 30
0.0
  0
TEXT
  8
ПОДПИСИ
 10
3476860.230
 20
1875576.638
 30
0.0
 40
1.5
  1
СКВ-269 (H=15, d=108, УГВ=, Скв. ?191) (факт)
  0
POINT
  8
СКВАЖИНЫ
 10
3476979.640
 20
1874320.018
 30
0.0
  0
TEXT
  8
ПОДПИСИ
 10
3476980.140
 20
1874320.518
 30
0.0
 40
1.5
  1
СКВ-270 (H=15, d=108, УГВ=, Скв: 198 (0.1-0.3 торф)) (факт)
  0
POINT
  8
СКВАЖИНЫ
 10
3477121.550
 20
1874184.868
 30
0.0
  0
TEXT
  8
ПОДПИСИ
 10
3477122.050
 20
1874185.368
 30
0.0
 40
1.5
  1
СКВ-271 (H=15, d=108, УГВ=, Скв: 199 (0.1-2.3 торф)) (факт)
  0
POINT
  8
СКВАЖИНЫ
 10
3476894.840
 20
1875387.598
 30
0.0
  0
TEXT
  8
ПОДПИСИ
 10
3476895.340
 20
1875388.098
 30
0.0
 40
1.5
  1
СКВ-272 (H=15, d=108, УГВ=, Скв. ?192) (факт)
  0
POINT
  8
СКВАЖИНЫ
 10
3477044.630
 20
1875255.078
 30
0.0
  0
TEXT
  8
ПОДПИСИ
 10
3477045.130
 20
1875255.578
 30
0.0
 40
1.5
  1
СКВ-273 (H=15, d=108, УГВ=, Скв. ?193) (факт)
  0
POINT
  8
СКВАЖИНЫ
 10
3477070.650
 20
1873992.278
 30
0.0
  0
TEXT
  8
ПОДПИСИ
 10
3477071.150
 20
1873992.778
 30
0.0
 40
1.5
  1
СКВ-274 (H=15, d=108, УГВ=, Скв. ?200) (факт)
  0
POINT
  8
СКВАЖИНЫ
 10
3476993.560
 20
1873807.728
 30
0.0
  0
TEXT
  8
ПОДПИСИ
 10
3476994.060
 20
1873808.228
 30
0.0
 40
1.5
  1
СКВ-275 (H=15, d=108, УГВ=, Скв. ?201) (факт)
  0
POINT
  8
СКВАЖИНЫ
 10
3477005.940
 20
1874511.478
 30
0.0
  0
TEXT
  8
ПОДПИСИ
 10
3477006.440
 20
1874511.978
 30
0.0
 40
1.5
  1
СКВ-276 (H=15, d=108, УГВ=, скв: 197 ( 0.1 - 0.8 торф)) (факт)
  0
POINT
  8
СКВАЖИНЫ
 10
3477044.890
 20
1874707.648
 30
0.0
  0
TEXT
  8
ПОДПИСИ
 10
3477045.390
 20
1874708.148
 30
0.0
 40
1.5
  1
СКВ-277 (H=15, d=108, УГВ=, Скв. ?196) (факт)
  0
POINT
  8
СКВАЖИНЫ
 10
3477085.590
 20
1874903.468
 30
0.0
  0
TEXT
  8
ПОДПИСИ
 10
3477086.090
 20
1874903.968
 30
0.0
 40
1.5
  1
СКВ-278 (H=15, d=108, УГВ=, Скв. ?195) (факт)
  0
POINT
  8
СКВАЖИНЫ
 10
3477125.420
 20
1875099.468
 30
0.0
  0
TEXT
  8
ПОДПИСИ
 10
3477125.920
 20
1875099.968
 30
0.0
 40
1.5
  1
СКВ-279 (H=15, d=108, УГВ=, Скв. ?194) (факт)
  0
POINT
  8
СКВАЖИНЫ
 10
3476916.480
 20
1873623.178
 30
0.0
  0
TEXT
  8
ПОДПИСИ
 10
3476916.980
 20
1873623.678
 30
0.0
 40
1.5
  1
СКВ-280 (H=15, d=108, УГВ=, Скв. ?202) (факт)
  0
POINT
  8
СКВАЖИНЫ
 10
3476839.400
 20
1873438.628
 30
0.0
  0
TEXT
  8
ПОДПИСИ
 10
3476839.900
 20
1873439.128
 30
0.0
 40
1.5
  1
СКВ-281 (H=15, d=108, УГВ=, Скв. ?203) (факт)
  0
POINT
  8
СКВАЖИНЫ
 10
3476748.280
 20
1873262.318
 30
0.0
  0
TEXT
  8
ПОДПИСИ
 10
3476748.780
 20
1873262.818
 30
0.0
 40
1.5
  1
СКВ-282 (H=15, d=108, УГВ=, Скв. ?204) (факт)
  0
POINT
  8
СКВАЖИНЫ
 10
3476624.760
 20
1873105.018
 30
0.0
  0
TEXT
  8
ПОДПИСИ
 10
3476625.260
 20
1873105.518
 30
0.0
 40
1.5
  1
СКВ-283 (H=15, d=108, УГВ=, Скв. ?205) (факт)
  0
POINT
  8
СКВАЖИНЫ
 10
3476979.950
 20
1871366.658
 30
0.0
  0
TEXT
  8
ПОДПИСИ
 10
3476980.450
 20
1871367.158
 30
0.0
 40
1.5
  1
СКВ-284 (H=15, d=108, УГВ=, Скв. ?214) (факт)
  0
POINT
  8
СКВАЖИНЫ
 10
3477051.000
 20
1871179.698
 30
0.0
  0
TEXT
  8
ПОДПИСИ
 10
3477051.500
 20
1871180.198
 30
0.0
 40
1.5
  1
СКВ-285 (H=15, d=108, УГВ=, Скв. ?215) (факт)
  0
POINT
  8
СКВАЖИНЫ
 10
3477576.410
 20
1870138.898
 30
0.0
  0
TEXT
  8
ПОДПИСИ
 10
3477576.910
 20
1870139.398
 30
0.0
 40
1.5
  1
СКВ-286 (H=15, d=108, УГВ=, скв: 221 ( 0.1 - 0.9 торф)) (факт)
  0
POINT
  8
СКВАЖИНЫ
 10
3477454.880
 20
1870274.538
 30
0.0
  0
TEXT
  8
ПОДПИСИ
 10
3477455.380
 20
1870275.038
 30
0.0
 40
1.5
  1
СКВ-287 (H=15, d=108, УГВ=, скв: 220 ( 9.1 - 10.8 лёд)) (факт)
  0
POINT
  8
СКВАЖИНЫ
 10
3477335.190
 20
1870431.878
 30
0.0
  0
TEXT
  8
ПОДПИСИ
 10
3477335.690
 20
1870432.378
 30
0.0
 40
1.5
  1
СКВ-288 (H=15, d=108, УГВ=, Скв: 219 (3.2 - 5.8 ледогрунт)) (факт)
  0
POINT
  8
СКВАЖИНЫ
 10
3477264.140
 20
1870618.838
 30
0.0
  0
TEXT
  8
ПОДПИСИ
 10
3477264.640
 20
1870619.338
 30
0.0
 40
1.5
  1
СКВ-289 (H=15, d=108, УГВ=, Скв. ?218) (факт)
  0
POINT
  8
СКВАЖИНЫ
 10
3476908.900
 20
1871553.608
 30
0.0
  0
TEXT
  8
ПОДПИСИ
 10
3476909.400
 20
1871554.108
 30
0.0
 40
1.5
  1
СКВ-290 (H=15, d=108, УГВ=, Скв. ?213) (факт)
  0
POINT
  8
СКВАЖИНЫ
 10
3476837.850
 20
1871740.568
 30
0.0
  0
TEXT
  8
ПОДПИСИ
 10
3476838.350
 20
1871741.068
 30
0.0
 40
1.5
  1
СКВ-291 (H=15, d=108, УГВ=, Скв. ?212) (факт)
  0
POINT
  8
СКВАЖИНЫ
 10
3476703.570
 20
1872324.538
 30
0.0
  0
TEXT
  8
ПОДПИСИ
 10
3476704.070
 20
1872325.038
 30
0.0
 40
1.5
  1
СКВ-292 (H=15, d=108, УГВ=, Скв. ?209) (факт)
  0
POINT
  8
СКВАЖИНЫ
 10
3476662.470
 20
1872520.278
 30
0.0
  0
TEXT
  8
ПОДПИСИ
 10
3476662.970
 20
1872520.778
 30
0.0
 40
1.5
  1
СКВ-293 (H=15, d=108, УГВ=, Скв. ?208) (факт)
  0
POINT
  8
СКВАЖИНЫ
 10
3476744.670
 20
1872128.808
 30
0.0
  0
TEXT
  8
ПОДПИСИ
 10
3476745.170
 20
1872129.308
 30
0.0
 40
1.5
  1
СКВ-294 (H=15, d=108, УГВ=, Скв. ?210) (факт)
  0
POINT
  8
СКВАЖИНЫ
 10
3476785.770
 20
1871933.078
 30
0.0
  0
TEXT
  8
ПОДПИСИ
 10
3476786.270
 20
1871933.578
 30
0.0
 40
1.5
  1
СКВ-295 (H=15, d=108, УГВ=, Скв. ?211) (факт)
  0
POINT
  8
СКВАЖИНЫ
 10
3476635.310
 20
1872718.298
 30
0.0
  0
TEXT
  8
ПОДПИСИ
 10
3476635.810
 20
1872718.798
 30
0.0
 40
1.5
  1
СКВ-296 (H=15, d=108, УГВ=, Скв. ?207) (факт)
  0
POINT
  8
СКВАЖИНЫ
 10
3476611.420
 20
1872916.868
 30
0.0
  0
TEXT
  8
ПОДПИСИ
 10
3476611.920
 20
1872917.368
 30
0.0
 40
1.5
  1
СКВ-297 (H=15, d=108, УГВ=, Скв. ?206) (факт)
  0
POINT
  8
СКВАЖИНЫ
 10
3477122.040
 20
1870992.748
 30
0.0
  0
TEXT
  8
ПОДПИСИ
 10
3477122.540
 20
1870993.248
 30
0.0
 40
1.5
  1
СКВ-298 (H=15, d=108, УГВ=, Скв. ?216) (факт)
  0
POINT
  8
СКВАЖИНЫ
 10
3477193.090
 20
1870805.788
 30
0.0
  0
TEXT
  8
ПОДПИСИ
 10
3477193.590
 20
1870806.288
 30
0.0
 40
1.5
  1
СКВ-299 (H=15, d=108, УГВ=, Скв. ? 217) (факт)
  0
POINT
  8
СКВАЖИНЫ
 10
3485676.810
 20
1834535.328
 30
0.0
  0
TEXT
  8
ПОДПИСИ
 10
3485677.310
 20
1834535.828
 30
0.0
 40
1.5
  1
СКВ-300 (H=15, d=108, УГВ=, Cкв.?456 ( 0.0 - 0.3 торф )) (факт)
  0
POINT
  8
СКВАЖИНЫ
 10
3485543.040
 20
1835069.408
 30
0.0
  0
TEXT
  8
ПОДПИСИ
 10
3485543.540
 20
1835069.908
 30
0.0
 40
1.5
  1
СКВ-301 (H=15, d=108, УГВ=, Скв.?453) (факт)
  0
POINT
  8
СКВАЖИНЫ
 10
3485744.990
 20
1833943.928
 30
0.0
  0
TEXT
  8
ПОДПИСИ
 10
3485745.490
 20
1833944.428
 30
0.0
 40
1.5
  1
СКВ-302 (H=15, d=108, УГВ=, Скв.?459) (факт)
  0
POINT
  8
СКВАЖИНЫ
 10
3485786.090
 20
1833748.198
 30
0.0
  0
TEXT
  8
ПОДПИСИ
 10
3485786.590
 20
1833748.698
 30
0.0
 40
1.5
  1
СКВ-303 (H=15, d=108, УГВ=, Скв.?460) (факт)
  0
POINT
  8
СКВАЖИНЫ
 10
3485405.180
 20
1835223.288
 30
0.0
  0
TEXT
  8
ПОДПИСИ
 10
3485405.680
 20
1835223.788
 30
0.0
 40
1.5
  1
СКВ-304 (H=15, d=108, УГВ=, Скв.?452) (факт)
  0
POINT
  8
СКВАЖИНЫ
 10
3485271.720
 20
1835372.238
 30
0.0
  0
TEXT
  8
ПОДПИСИ
 10
3485272.220
 20
1835372.738
 30
0.0
 40
1.5
  1
СКВ-305 (H=15, d=108, УГВ=, Скв.?451) (факт)
  0
POINT
  8
СКВАЖИНЫ
 10
3485703.890
 20
1834139.658
 30
0.0
  0
TEXT
  8
ПОДПИСИ
 10
3485704.390
 20
1834140.158
 30
0.0
 40
1.5
  1
СКВ-306 (H=15, d=108, УГВ=, Скв.?458) (факт)
  0
POINT
  8
СКВАЖИНЫ
 10
3485665.850
 20
1834335.628
 30
0.0
  0
TEXT
  8
ПОДПИСИ
 10
3485666.350
 20
1834336.128
 30
0.0
 40
1.5
  1
СКВ-307 (H=15, d=108, УГВ=, Скв.?457) (факт)
  0
POINT
  8
СКВАЖИНЫ
 10
3485672.100
 20
1834925.368
 30
0.0
  0
TEXT
  8
ПОДПИСИ
 10
3485672.600
 20
1834925.868
 30
0.0
 40
1.5
  1
СКВ-308 (H=15, d=108, УГВ=, Скв.?454) (факт)
  0
POINT
  8
СКВАЖИНЫ
 10
3485687.760
 20
1834735.028
 30
0.0
  0
TEXT
  8
ПОДПИСИ
 10
3485688.260
 20
1834735.528
 30
0.0
 40
1.5
  1
СКВ-309 (H=15, d=108, УГВ=, Скв.?455 ( 0.0 - 0.3 торф, 1.0 - 2.0 торф)) (факт)
  0
POINT
  8
СКВАЖИНЫ
 10
3485138.260
 20
1835521.198
 30
0.0
  0
TEXT
  8
ПОДПИСИ
 10
3485138.760
 20
1835521.698
 30
0.0
 40
1.5
  1
СКВ-310 (H=15, d=108, УГВ=, Скв.?450) (факт)
  0
POINT
  8
СКВАЖИНЫ
 10
3485004.790
 20
1835670.158
 30
0.0
  0
TEXT
  8
ПОДПИСИ
 10
3485005.290
 20
1835670.658
 30
0.0
 40
1.5
  1
СКВ-311 (H=15, d=108, УГВ=, Скв.?449) (факт)
  0
POINT
  8
СКВАЖИНЫ
 10
3477458.553
 20
1869390.570
 30
0.0
  0
TEXT
  8
ПОДПИСИ
 10
3477459.053
 20
1869391.070
 30
0.0
 40
1.5
  1
скв: 226  (H=15, d=108, УГВ=, скв: 226 ( 0.1 - 1.2 торф)) (факт)
  0
POINT
  8
СКВАЖИНЫ
 10
3477343.583
 20
1867998.752
 30
0.0
  0
TEXT
  8
ПОДПИСИ
 10
3477344.083
 20
1867999.252
 30
0.0
 40
1.5
  1
скв: 233 (H=15, d=108, УГВ=, скв: 233 ( 1.4 - 1.8 лёд)) (факт)
  0
POINT
  8
СКВАЖИНЫ
 10
3477277.874
 20
1866801.423
 30
0.0
  0
TEXT
  8
ПОДПИСИ
 10
3477278.374
 20
1866801.923
 30
0.0
 40
1.5
  1
скв: 239  (H=15, d=108, УГВ=, скв: 239 ( 0.1 - 0.7 торф)) (факт)
  0
POINT
  8
СКВАЖИНЫ
 10
3477288.818
 20
1867000.806
 30
0.0
  0
TEXT
  8
ПОДПИСИ
 10
3477289.318
 20
1867001.306
 30
0.0
 40
1.5
  1
Скв.?238 (H=15, d=108, УГВ=, Скв.?238) (факт)
  0
POINT
  8
СКВАЖИНЫ
 10
3477354.565
 20
1868198.905
 30
0.0
  0
TEXT
  8
ПОДПИСИ
 10
3477355.065
 20
1868199.405
 30
0.0
 40
1.5
  1
Скв.?232 (H=15, d=108, УГВ=, Скв.?232) (факт)
  0
POINT
  8
СКВАЖИНЫ
 10
3477409.375
 20
1869198.076
 30
0.0
  0
TEXT
  8
ПОДПИСИ
 10
3477409.875
 20
1869198.576
 30
0.0
 40
1.5
  1
Скв.?227 (H=15, d=108, УГВ=, Скв.?227) (факт)
  0
POINT
  8
СКВАЖИНЫ
 10
3477387.451
 20
1868798.360
 30
0.0
  0
TEXT
  8
ПОДПИСИ
 10
3477387.951
 20
1868798.860
 30
0.0
 40
1.5
  1
Скв: 229 (H=15, d=108, УГВ=, Скв: 229 (1.2 - 2.8 лёд)) (факт)
  0
POINT
  8
СКВАЖИНЫ
 10
3477321.710
 20
1867600.132
 30
0.0
  0
TEXT
  8
ПОДПИСИ
 10
3477322.210
 20
1867600.632
 30
0.0
 40
1.5
  1
Скв: 235  (H=15, d=108, УГВ=, Скв: 235 ( 0.1 - 0.4 торф)) (факт)
  0
POINT
  8
СКВАЖИНЫ
 10
3477520.640
 20
1869579.519
 30
0.0
  0
TEXT
  8
ПОДПИСИ
 10
3477521.140
 20
1869580.019
 30
0.0
 40
1.5
  1
Скв.?225 (H=15, d=108, УГВ=, Скв.?225) (факт)
  0
POINT
  8
СКВАЖИНЫ
 10
3477583.141
 20
1869770.155
 30
0.0
  0
TEXT
  8
ПОДПИСИ
 10
3477583.641
 20
1869770.655
 30
0.0
 40
1.5
  1
Скв.?224 (H=15, d=108, УГВ=, Скв.?224) (факт)
  0
POINT
  8
СКВАЖИНЫ
 10
3477398.427
 20
1868998.467
 30
0.0
  0
TEXT
  8
ПОДПИСИ
 10
3477398.927
 20
1868998.967
 30
0.0
 40
1.5
  1
Скв.?228 (H=15, d=108, УГВ=, Скв.?228) (факт)
  0
POINT
  8
СКВАЖИНЫ
 10
3477332.695
 20
1867800.317
 30
0.0
  0
TEXT
  8
ПОДПИСИ
 10
3477333.195
 20
1867800.817
 30
0.0
 40
1.5
  1
Скв.?234 (H=15, d=108, УГВ=, Скв.?234) (факт)
  0
POINT
  8
СКВАЖИНЫ
 10
3477299.831
 20
1867201.465
 30
0.0
  0
TEXT
  8
ПОДПИСИ
 10
3477300.331
 20
1867201.965
 30
0.0
 40
1.5
  1
Скв.?237 (H=15, d=108, УГВ=, Скв.?237) (факт)
  0
POINT
  8
СКВАЖИНЫ
 10
3477310.747
 20
1867400.373
 30
0.0
  0
TEXT
  8
ПОДПИСИ
 10
3477311.247
 20
1867400.873
 30
0.0
 40
1.5
  1
Скв.?236 (H=15, d=108, УГВ=, Скв.?236) (факт)
  0
POINT
  8
СКВАЖИНЫ
 10
3477365.506
 20
1868399.044
 30
0.0
  0
TEXT
  8
ПОДПИСИ
 10
3477366.006
 20
1868399.544
 30
0.0
 40
1.5
  1
Скв.?231 (H=15, d=108, УГВ=, Скв.?231) (факт)
  0
POINT
  8
СКВАЖИНЫ
 10
3477376.306
 20
1868598.729
 30
0.0
  0
TEXT
  8
ПОДПИСИ
 10
3477376.806
 20
1868599.229
 30
0.0
 40
1.5
  1
Скв.?230 (H=15, d=108, УГВ=, Скв.?230) (факт)
  0
POINT
  8
СКВАЖИНЫ
 10
3477645.719
 20
1869961.040
 30
0.0
  0
TEXT
  8
ПОДПИСИ
 10
3477646.219
 20
1869961.540
 30
0.0
 40
1.5
  1
Скв.?223 (H=15, d=108, УГВ=, Скв.?223) (факт)
  0
POINT
  8
СКВАЖИНЫ
 10
3477598.367
 20
1870114.504
 30
0.0
  0
TEXT
  8
ПОДПИСИ
 10
3477598.867
 20
1870115.004
 30
0.0
 40
1.5
  1
СКВ-329 (H=15, d=108, УГВ=, Скв.?222) (факт)
  0
POINT
  8
СКВАЖИНЫ
 10
3484452.984
 20
1836571.412
 30
0.0
  0
TEXT
  8
ПОДПИСИ
 10
3484453.484
 20
1836571.912
 30
0.0
 40
1.5
  1
Cкв: 443  (H=15, d=108, УГВ=, Cкв: 443 ( 2.0 - 9.2 ледогрунт )) (факт)
  0
POINT
  8
СКВАЖИНЫ
 10
3484329.700
 20
1837158.871
 30
0.0
  0
TEXT
  8
ПОДПИСИ
 10
3484330.200
 20
1837159.371
 30
0.0
 40
1.5
  1
Скв: 440  (H=15, d=108, УГВ=, Скв: 440 ( 0.0 - 0.3 торф)) (факт)
  0
POINT
  8
СКВАЖИНЫ
 10
3484288.428
 20
1837355.566
 30
0.0
  0
TEXT
  8
ПОДПИСИ
 10
3484288.928
 20
1837356.066
 30
0.0
 40
1.5
  1
Скв: 439 (H=15, d=108, УГВ=, Скв: 439) (факт)
  0
POINT
  8
СКВАЖИНЫ
 10
3484494.308
 20
1836375.708
 30
0.0
  0
TEXT
  8
ПОДПИСИ
 10
3484494.808
 20
1836376.208
 30
0.0
 40
1.5
  1
Скв.?444 (H=15, d=108, УГВ=, Скв.?444) (факт)
  0
POINT
  8
СКВАЖИНЫ
 10
3484626.029
 20
1835796.868
 30
0.0
  0
TEXT
  8
ПОДПИСИ
 10
3484626.529
 20
1835797.368
 30
0.0
 40
1.5
  1
Скв.?447 (H=15, d=108, УГВ=, Скв.?447) (факт)
  0
POINT
  8
СКВАЖИНЫ
 10
3484816.443
 20
1835734.398
 30
0.0
  0
TEXT
  8
ПОДПИСИ
 10
3484816.943
 20
1835734.898
 30
0.0
 40
1.5
  1
Скв.?448 (H=15, d=108, УГВ=, Скв.?448) (факт)
  0
POINT
  8
СКВАЖИНЫ
 10
3484576.336
 20
1835984.984
 30
0.0
  0
TEXT
  8
ПОДПИСИ
 10
3484576.836
 20
1835985.484
 30
0.0
 40
1.5
  1
Скв.?446 (H=15, d=108, УГВ=, Скв.?446) (факт)
  0
POINT
  8
СКВАЖИНЫ
 10
3484534.995
 20
1836180.356
 30
0.0
  0
TEXT
  8
ПОДПИСИ
 10
3484535.495
 20
1836180.856
 30
0.0
 40
1.5
  1
Скв.?445 (H=15, d=108, УГВ=, Скв.?445) (факт)
  0
POINT
  8
СКВАЖИНЫ
 10
3484412.015
 20
1836766.615
 30
0.0
  0
TEXT
  8
ПОДПИСИ
 10
3484412.515
 20
1836767.115
 30
0.0
 40
1.5
  1
Скв.?442 (H=15, d=108, УГВ=, Скв.?442) (факт)
  0
POINT
  8
СКВАЖИНЫ
 10
3484370.678
 20
1836963.196
 30
0.0
  0
TEXT
  8
ПОДПИСИ
 10
3484371.178
 20
1836963.696
 30
0.0
 40
1.5
  1
Скв.?441 (H=15, d=108, УГВ=, Скв.?441) (факт)
  0
POINT
  8
СКВАЖИНЫ
 10
3484247.324
 20
1837550.550
 30
0.0
  0
TEXT
  8
ПОДПИСИ
 10
3484247.824
 20
1837551.050
 30
0.0
 40
1.5
  1
Скв.?438 (H=15, d=108, УГВ=, Скв.?438) (факт)
  0
POINT
  8
СКВАЖИНЫ
 10
3484220.307
 20
1837749.036
 30
0.0
  0
TEXT
  8
ПОДПИСИ
 10
3484220.807
 20
1837749.536
 30
0.0
 40
1.5
  1
Скв.?437 (H=15, d=108, УГВ=, Скв.?437) (факт)
  0
TEXT
  8
ПОДПИСИ
 10
0.0
 20
0.0
 30
0.0
 40
0.5
  1
КС2-КС3 | X(northing) / Y(easting) МСК-86/89
  0
ENDSEC
  0
EOF
